<svg width="88" height="69" viewBox="0 0 88 69" fill="none" xmlns="http://www.w3.org/2000/svg">
<path fill-rule="evenodd" clip-rule="evenodd" d="M33.7637 9C32.6591 9 31.7637 9.89543 31.7637 11V16.0794C31.7637 17.1839 32.6591 18.0794 33.7637 18.0794H38.9635C40.0681 18.0794 40.9635 17.1839 40.9635 16.0794V11C40.9635 9.89543 40.0681 9 38.9635 9H33.7637ZM46.9352 9C45.8306 9 44.9352 9.89543 44.9352 11V16.0794C44.9352 17.1839 45.8306 18.0794 46.9352 18.0794H52.135C53.2396 18.0794 54.135 17.1839 54.135 16.0794V11C54.135 9.89543 53.2396 9 52.135 9H46.9352ZM31.7637 23.9206C31.7637 22.8161 32.6591 21.9206 33.7637 21.9206H38.9635C40.0681 21.9206 40.9635 22.8161 40.9635 23.9206V29C40.9635 30.1046 40.0681 31 38.9635 31H33.7637C32.6591 31 31.7637 30.1046 31.7637 29V23.9206ZM46.9352 21.9206C45.8306 21.9206 44.9352 22.8161 44.9352 23.9206V29C44.9352 30.1046 45.8306 31 46.9352 31H52.135C53.2396 31 54.135 30.1046 54.135 29V23.9206C54.135 22.8161 53.2396 21.9206 52.135 21.9206H46.9352Z" fill="#848CA8"/>
<path d="M14.5586 54V45.4526H17.1342C18.1751 45.4526 19.0735 45.6255 19.8295 45.9712C20.5855 46.3131 21.1667 46.8031 21.5732 47.4413C21.9796 48.0795 22.1829 48.8412 22.1829 49.7263C22.1829 50.6076 21.9796 51.3693 21.5732 52.0113C21.1667 52.6495 20.5855 53.1415 19.8295 53.4872C19.0735 53.8291 18.1751 54 17.1342 54H14.5586ZM15.8122 52.8945H17.1855C17.9719 52.8945 18.6424 52.7711 19.197 52.5242C19.7516 52.2734 20.1733 51.9125 20.462 51.4415C20.7545 50.9666 20.9008 50.3949 20.9008 49.7263C20.9008 49.0539 20.7545 48.4822 20.462 48.0111C20.1733 47.5401 19.7516 47.1811 19.197 46.9342C18.6424 46.6835 17.9719 46.5581 17.1855 46.5581H15.8122V52.8945ZM28.2173 54H27.2087L27.1403 53.2706C26.9314 53.5365 26.6674 53.7436 26.3483 53.8917C26.0292 54.0399 25.6759 54.114 25.2884 54.114C24.8819 54.114 24.5192 54.0342 24.2001 53.8746C23.881 53.7151 23.6302 53.4967 23.4479 53.2193C23.2655 52.942 23.1744 52.6267 23.1744 52.2734C23.1744 51.9011 23.2731 51.5744 23.4707 51.2933C23.6682 51.0084 23.9379 50.7862 24.2798 50.6266C24.6217 50.4633 25.0111 50.3816 25.448 50.3816C25.7215 50.3816 25.9988 50.4139 26.2799 50.4785C26.5648 50.5431 26.8212 50.6342 27.0492 50.752V50.5412C27.0492 50.2639 26.977 50.0264 26.8326 49.8289C26.6921 49.6275 26.4983 49.4737 26.2514 49.3673C26.0083 49.261 25.7386 49.2078 25.4423 49.2078C25.1802 49.2078 24.9123 49.2534 24.6388 49.3445C24.3691 49.4357 24.1146 49.5763 23.8753 49.7662L23.522 48.8146C23.8677 48.6095 24.2266 48.4537 24.5989 48.3473C24.975 48.241 25.3435 48.1878 25.7044 48.1878C26.221 48.1878 26.6655 48.2904 27.0378 48.4955C27.4139 48.7006 27.7045 48.9931 27.9096 49.373C28.1147 49.7491 28.2173 50.1936 28.2173 50.7064V54ZM25.5163 53.1225C25.7861 53.1225 26.0349 53.0674 26.2628 52.9572C26.4907 52.8433 26.675 52.6837 26.8155 52.4786C26.9599 52.2696 27.0378 52.0265 27.0492 51.7492V51.6694C26.8554 51.5251 26.637 51.413 26.3939 51.3332C26.1546 51.2496 25.9095 51.2079 25.6588 51.2079C25.2751 51.2079 24.956 51.299 24.7015 51.4814C24.447 51.6637 24.3197 51.8973 24.3197 52.1823C24.3197 52.3608 24.371 52.5223 24.4736 52.6666C24.5799 52.8072 24.7224 52.9192 24.9009 53.0028C25.0833 53.0826 25.2884 53.1225 25.5163 53.1225ZM29.3513 53.5043L29.6362 52.4558C29.7653 52.5849 29.9192 52.6989 30.0977 52.7977C30.2801 52.8964 30.4719 52.9743 30.6733 53.0313C30.8784 53.0845 31.0797 53.1111 31.2773 53.1111C31.5888 53.1111 31.8395 53.0446 32.0294 52.9116C32.2194 52.7787 32.3144 52.602 32.3144 52.3817C32.3144 52.2183 32.2612 52.0835 32.1548 51.9771C32.0522 51.867 31.9136 51.772 31.7388 51.6922C31.5679 51.6124 31.3836 51.5346 31.1861 51.4586C30.9316 51.3636 30.6771 51.2534 30.4225 51.1281C30.1718 51.0027 29.961 50.8356 29.79 50.6266C29.6191 50.4177 29.5336 50.1423 29.5336 49.8004C29.5336 49.4737 29.6172 49.1907 29.7843 48.9514C29.9515 48.7082 30.1851 48.5202 30.4852 48.3872C30.7853 48.2543 31.131 48.1878 31.5223 48.1878C32.1301 48.1878 32.7322 48.3397 33.3286 48.6437L32.9867 49.6408C32.8652 49.5535 32.7208 49.4756 32.5537 49.4072C32.3865 49.3388 32.2156 49.2857 32.0408 49.2477C31.8661 49.2059 31.7046 49.185 31.5565 49.185C31.3096 49.185 31.1101 49.2401 30.9582 49.3502C30.81 49.4604 30.7359 49.6086 30.7359 49.7947C30.7359 49.9087 30.772 50.0131 30.8442 50.1081C30.9164 50.1993 31.0303 50.2904 31.1861 50.3816C31.3457 50.469 31.5603 50.5678 31.83 50.6779C32.0883 50.7805 32.3466 50.8983 32.605 51.0312C32.8633 51.1642 33.0779 51.337 33.2489 51.5498C33.4236 51.7625 33.511 52.0417 33.511 52.3874C33.511 52.7293 33.4198 53.0313 33.2375 53.2934C33.0551 53.5517 32.8006 53.7531 32.4739 53.8974C32.151 54.0418 31.7749 54.114 31.3457 54.114C30.6353 54.114 29.9705 53.9107 29.3513 53.5043ZM34.7532 54V45.4526H35.9213V49.0938C36.343 48.4898 36.9831 48.1878 37.8416 48.1878C38.5824 48.1878 39.1617 48.4119 39.5796 48.8602C39.9975 49.3084 40.2064 49.9334 40.2064 50.7349V54H39.0383V51.0198C39.0383 50.4538 38.9015 50.015 38.628 49.7035C38.3583 49.392 37.9803 49.2363 37.4941 49.2363C37.004 49.2363 36.6184 49.3958 36.3373 49.7149C36.06 50.0302 35.9213 50.4652 35.9213 51.0198V54H34.7532ZM42.7706 54H41.7392V45.4526H42.9074V49.0311C43.1657 48.7652 43.4677 48.5582 43.8134 48.41C44.1629 48.2619 44.5428 48.1878 44.953 48.1878C45.5039 48.1878 45.9939 48.317 46.4232 48.5753C46.8525 48.8336 47.1906 49.1869 47.4375 49.6351C47.6882 50.0796 47.8136 50.5849 47.8136 51.1509C47.8136 51.7131 47.6882 52.2183 47.4375 52.6666C47.1906 53.1149 46.8525 53.4682 46.4232 53.7265C45.9939 53.9848 45.5039 54.114 44.953 54.114C44.52 54.114 44.1211 54.0323 43.7564 53.8689C43.3955 53.7018 43.0859 53.4739 42.8276 53.1852L42.7706 54ZM44.765 53.0655C45.1183 53.0655 45.4336 52.9819 45.7109 52.8148C45.992 52.6476 46.2124 52.4197 46.3719 52.131C46.5353 51.8423 46.6169 51.5156 46.6169 51.1509C46.6169 50.7862 46.5353 50.4595 46.3719 50.1708C46.2124 49.8821 45.992 49.6541 45.7109 49.487C45.4336 49.3198 45.1183 49.2363 44.765 49.2363C44.4269 49.2363 44.1211 49.3122 43.8476 49.4642C43.5779 49.6162 43.3594 49.8251 43.1923 50.091C43.0251 50.3569 42.9302 50.6608 42.9074 51.0027V51.2933C42.9302 51.6314 43.0232 51.9353 43.1866 52.2051C43.3537 52.471 43.5722 52.6818 43.8419 52.8376C44.1154 52.9895 44.4231 53.0655 44.765 53.0655ZM51.62 54.114C51.0502 54.114 50.5373 53.9848 50.0815 53.7265C49.6256 53.4682 49.2666 53.1168 49.0045 52.6723C48.7424 52.224 48.6113 51.7169 48.6113 51.1509C48.6113 50.5887 48.7424 50.0853 49.0045 49.6408C49.2666 49.1926 49.6256 48.8393 50.0815 48.581C50.5373 48.3189 51.0502 48.1878 51.62 48.1878C52.1936 48.1878 52.7065 48.3189 53.1585 48.581C53.6106 48.8393 53.9658 49.1926 54.2241 49.6408C54.4862 50.0853 54.6173 50.5887 54.6173 51.1509C54.6173 51.7169 54.4862 52.224 54.2241 52.6723C53.9658 53.1168 53.6106 53.4682 53.1585 53.7265C52.7065 53.9848 52.1936 54.114 51.62 54.114ZM51.6143 53.0655C51.96 53.0655 52.2677 52.9819 52.5374 52.8148C52.8109 52.6438 53.0256 52.4159 53.1813 52.131C53.3409 51.8423 53.4206 51.5137 53.4206 51.1452C53.4206 50.7843 53.3409 50.4614 53.1813 50.1765C53.0256 49.8878 52.8109 49.6598 52.5374 49.4927C52.2677 49.3217 51.96 49.2363 51.6143 49.2363C51.2724 49.2363 50.9647 49.3217 50.6912 49.4927C50.4177 49.6598 50.2011 49.8878 50.0416 50.1765C49.8858 50.4614 49.808 50.7843 49.808 51.1452C49.808 51.5137 49.8858 51.8423 50.0416 52.131C50.2011 52.4159 50.4177 52.6438 50.6912 52.8148C50.9647 52.9819 51.2724 53.0655 51.6143 53.0655ZM60.5947 54H59.5861L59.5178 53.2706C59.3088 53.5365 59.0448 53.7436 58.7257 53.8917C58.4066 54.0399 58.0533 54.114 57.6658 54.114C57.2594 54.114 56.8966 54.0342 56.5775 53.8746C56.2584 53.7151 56.0076 53.4967 55.8253 53.2193C55.643 52.942 55.5518 52.6267 55.5518 52.2734C55.5518 51.9011 55.6506 51.5744 55.8481 51.2933C56.0456 51.0084 56.3154 50.7862 56.6572 50.6266C56.9991 50.4633 57.3885 50.3816 57.8254 50.3816C58.0989 50.3816 58.3762 50.4139 58.6573 50.4785C58.9422 50.5431 59.1987 50.6342 59.4266 50.752V50.5412C59.4266 50.2639 59.3544 50.0264 59.2101 49.8289C59.0695 49.6275 58.8758 49.4737 58.6288 49.3673C58.3857 49.261 58.116 49.2078 57.8197 49.2078C57.5576 49.2078 57.2898 49.2534 57.0162 49.3445C56.7465 49.4357 56.492 49.5763 56.2527 49.7662L55.8994 48.8146C56.2451 48.6095 56.6041 48.4537 56.9763 48.3473C57.3524 48.241 57.7209 48.1878 58.0818 48.1878C58.5984 48.1878 59.0429 48.2904 59.4152 48.4955C59.7913 48.7006 60.0819 48.9931 60.287 49.373C60.4922 49.7491 60.5947 50.1936 60.5947 50.7064V54ZM57.8938 53.1225C58.1635 53.1225 58.4123 53.0674 58.6402 52.9572C58.8682 52.8433 59.0524 52.6837 59.193 52.4786C59.3373 52.2696 59.4152 52.0265 59.4266 51.7492V51.6694C59.2329 51.5251 59.0144 51.413 58.7713 51.3332C58.532 51.2496 58.2869 51.2079 58.0362 51.2079C57.6525 51.2079 57.3334 51.299 57.0789 51.4814C56.8244 51.6637 56.6971 51.8973 56.6971 52.1823C56.6971 52.3608 56.7484 52.5223 56.851 52.6666C56.9574 52.8072 57.0998 52.9192 57.2784 53.0028C57.4607 53.0826 57.6658 53.1225 57.8938 53.1225ZM63.2957 54H62.1276V48.3018H63.1475L63.1931 49.3844C63.3907 49.0083 63.6623 48.7158 64.008 48.5069C64.3575 48.2942 64.7582 48.1878 65.2103 48.1878C65.3205 48.1878 65.4306 48.1954 65.5408 48.2106C65.6548 48.222 65.7687 48.241 65.8827 48.2676L65.7345 49.3217C65.5142 49.2648 65.2977 49.2363 65.0849 49.2363C64.7317 49.2363 64.4201 49.3217 64.1504 49.4927C63.8807 49.6598 63.6699 49.8916 63.5179 50.1879C63.3698 50.4842 63.2957 50.8261 63.2957 51.2136V54ZM72.4414 54H71.41L71.3473 53.1852C71.089 53.4739 70.7775 53.7018 70.4128 53.8689C70.0519 54.0323 69.6549 54.114 69.2219 54.114C68.6748 54.114 68.1848 53.9848 67.7517 53.7265C67.3187 53.4682 66.9768 53.1149 66.726 52.6666C66.4791 52.2183 66.3556 51.7131 66.3556 51.1509C66.3556 50.5849 66.4791 50.0796 66.726 49.6351C66.9768 49.1869 67.3187 48.8336 67.7517 48.5753C68.1848 48.317 68.6748 48.1878 69.2219 48.1878C69.6321 48.1878 70.012 48.2619 70.3615 48.41C70.7148 48.5582 71.0187 48.7652 71.2732 49.0311V45.4526H72.4414V54ZM69.4156 53.0655C69.7613 53.0655 70.0728 52.9857 70.3501 52.8262C70.6312 52.6666 70.8554 52.4501 71.0225 52.1766C71.1897 51.903 71.2732 51.5915 71.2732 51.2421V51.0483C71.2732 50.6988 71.1897 50.3873 71.0225 50.1138C70.8554 49.8403 70.6312 49.6256 70.3501 49.4699C70.0728 49.3141 69.7613 49.2363 69.4156 49.2363C69.0623 49.2363 68.7451 49.3198 68.464 49.487C68.1829 49.6541 67.9607 49.8821 67.7973 50.1708C67.634 50.4557 67.5523 50.7805 67.5523 51.1452C67.5523 51.5099 67.634 51.8366 67.7973 52.1253C67.9607 52.414 68.1829 52.6438 68.464 52.8148C68.7451 52.9819 69.0623 53.0655 69.4156 53.0655Z" fill="#848CA8"/>
</svg>
