<svg width="59" height="10" viewBox="0 0 59 10" fill="none" xmlns="http://www.w3.org/2000/svg">
<path d="M0.558628 9V0.452637H3.13423C4.17511 0.452637 5.07354 0.625483 5.8295 0.971177C6.58547 1.31307 7.16669 1.80312 7.57316 2.44132C7.97964 3.07953 8.18288 3.84119 8.18288 4.72632C8.18288 5.60765 7.97964 6.36931 7.57316 7.01131C7.16669 7.64952 6.58547 8.14146 5.8295 8.48716C5.07354 8.82905 4.17511 9 3.13423 9H0.558628ZM1.81224 7.89454H3.18552C3.97187 7.89454 4.64237 7.77108 5.197 7.52416C5.75163 7.27343 6.1733 6.91254 6.46201 6.44149C6.75452 5.96664 6.90077 5.39491 6.90077 4.72632C6.90077 4.05393 6.75452 3.4822 6.46201 3.01115C6.1733 2.54009 5.75163 2.1811 5.197 1.93418C4.64237 1.68346 3.97187 1.5581 3.18552 1.5581H1.81224V7.89454ZM14.2173 9H13.2087L13.1403 8.27062C12.9314 8.53654 12.6674 8.74358 12.3483 8.89173C12.0292 9.03989 11.6759 9.11396 11.2884 9.11396C10.8819 9.11396 10.5192 9.03419 10.2001 8.87464C9.88095 8.71509 9.63023 8.49666 9.44789 8.21934C9.26554 7.94203 9.17437 7.62672 9.17437 7.27343C9.17437 6.90115 9.27314 6.57445 9.47068 6.29333C9.66822 6.00842 9.93794 5.78619 10.2798 5.62664C10.6217 5.46329 11.0111 5.38162 11.448 5.38162C11.7215 5.38162 11.9988 5.41391 12.2799 5.47849C12.5648 5.54307 12.8212 5.63424 13.0492 5.752V5.54117C13.0492 5.26385 12.977 5.02643 12.8326 4.82889C12.6921 4.62755 12.4983 4.4737 12.2514 4.36733C12.0083 4.26096 11.7386 4.20778 11.4423 4.20778C11.1802 4.20778 10.9123 4.25336 10.6388 4.34454C10.3691 4.43571 10.1146 4.57626 9.87526 4.76621L9.52196 3.8146C9.86766 3.60946 10.2266 3.45371 10.5989 3.34734C10.975 3.24098 11.3435 3.18779 11.7044 3.18779C12.221 3.18779 12.6655 3.29036 13.0378 3.4955C13.4139 3.70063 13.7045 3.99314 13.9096 4.37303C14.1147 4.74911 14.2173 5.19357 14.2173 5.70642V9ZM11.5163 8.12247C11.7861 8.12247 12.0349 8.06739 12.2628 7.95722C12.4907 7.84326 12.675 7.68371 12.8155 7.47857C12.9599 7.26963 13.0378 7.02651 13.0492 6.74919V6.66942C12.8554 6.52506 12.637 6.413 12.3939 6.33322C12.1546 6.24965 11.9095 6.20786 11.6588 6.20786C11.2751 6.20786 10.956 6.29903 10.7015 6.48138C10.447 6.66372 10.3197 6.89735 10.3197 7.18226C10.3197 7.36081 10.371 7.52226 10.4736 7.66661C10.5799 7.80717 10.7224 7.91923 10.9009 8.00281C11.0833 8.08258 11.2884 8.12247 11.5163 8.12247ZM15.3513 8.50425L15.6362 7.45578C15.7653 7.58494 15.9192 7.6989 16.0977 7.79767C16.2801 7.89644 16.4719 7.97432 16.6733 8.0313C16.8784 8.08448 17.0797 8.11107 17.2773 8.11107C17.5888 8.11107 17.8395 8.04459 18.0294 7.91164C18.2194 7.77868 18.3144 7.60203 18.3144 7.3817C18.3144 7.21835 18.2612 7.08349 18.1548 6.97712C18.0522 6.86696 17.9136 6.77199 17.7388 6.69221C17.5679 6.61244 17.3836 6.53456 17.1861 6.45858C16.9316 6.36361 16.6771 6.25345 16.4225 6.12809C16.1718 6.00272 15.961 5.83558 15.79 5.62664C15.6191 5.41771 15.5336 5.14229 15.5336 4.8004C15.5336 4.4737 15.6172 4.19068 15.7843 3.95136C15.9515 3.70823 16.1851 3.52019 16.4852 3.38723C16.7853 3.25427 17.131 3.18779 17.5223 3.18779C18.1301 3.18779 18.7322 3.33975 19.3286 3.64365L18.9867 4.64084C18.8652 4.55347 18.7208 4.4756 18.5537 4.40722C18.3865 4.33884 18.2156 4.28565 18.0408 4.24767C17.8661 4.20588 17.7046 4.18499 17.5565 4.18499C17.3096 4.18499 17.1101 4.24007 16.9582 4.35023C16.81 4.4604 16.7359 4.60855 16.7359 4.7947C16.7359 4.90866 16.772 5.01313 16.8442 5.1081C16.9164 5.19927 17.0303 5.29044 17.1861 5.38162C17.3457 5.46899 17.5603 5.56776 17.83 5.67792C18.0883 5.78049 18.3466 5.89826 18.605 6.03122C18.8633 6.16417 19.0779 6.33702 19.2489 6.54976C19.4236 6.76249 19.511 7.0417 19.511 7.3874C19.511 7.72929 19.4198 8.0313 19.2375 8.29342C19.0551 8.55174 18.8006 8.75308 18.4739 8.89743C18.151 9.04179 17.7749 9.11396 17.3457 9.11396C16.6353 9.11396 15.9705 8.91073 15.3513 8.50425ZM20.7532 9V0.452637H21.9213V4.09381C22.343 3.4898 22.9831 3.18779 23.8416 3.18779C24.5824 3.18779 25.1617 3.41192 25.5796 3.86019C25.9975 4.30845 26.2064 4.93335 26.2064 5.73491V9H25.0383V6.01982C25.0383 5.45379 24.9015 5.01503 24.628 4.70353C24.3583 4.39202 23.9803 4.23627 23.4941 4.23627C23.004 4.23627 22.6184 4.39582 22.3373 4.71492C22.06 5.03022 21.9213 5.46519 21.9213 6.01982V9H20.7532ZM28.7706 9H27.7392V0.452637H28.9074V4.03113C29.1657 3.76521 29.4677 3.55818 29.8134 3.41002C30.1629 3.26187 30.5428 3.18779 30.953 3.18779C31.5039 3.18779 31.9939 3.31695 32.4232 3.57527C32.8525 3.83359 33.1906 4.18688 33.4375 4.63515C33.6882 5.07961 33.8136 5.58485 33.8136 6.15088C33.8136 6.71311 33.6882 7.21835 33.4375 7.66661C33.1906 8.11487 32.8525 8.46816 32.4232 8.72648C31.9939 8.9848 31.5039 9.11396 30.953 9.11396C30.52 9.11396 30.1211 9.03229 29.7564 8.86894C29.3955 8.70179 29.0859 8.47386 28.8276 8.18515L28.7706 9ZM30.765 8.06549C31.1183 8.06549 31.4336 7.98191 31.7109 7.81477C31.992 7.64762 32.2124 7.41969 32.3719 7.13098C32.5353 6.84227 32.6169 6.51557 32.6169 6.15088C32.6169 5.78619 32.5353 5.45949 32.3719 5.17078C32.2124 4.88207 31.992 4.65414 31.7109 4.48699C31.4336 4.31984 31.1183 4.23627 30.765 4.23627C30.4269 4.23627 30.1211 4.31225 29.8476 4.4642C29.5779 4.61615 29.3594 4.82509 29.1923 5.09101C29.0251 5.35692 28.9302 5.66083 28.9074 6.00272V6.29333C28.9302 6.63143 29.0232 6.93534 29.1866 7.20505C29.3537 7.47097 29.5722 7.68181 29.8419 7.83756C30.1154 7.98951 30.4231 8.06549 30.765 8.06549ZM37.62 9.11396C37.0502 9.11396 36.5373 8.9848 36.0815 8.72648C35.6256 8.46816 35.2666 8.11677 35.0045 7.67231C34.7424 7.22405 34.6113 6.7169 34.6113 6.15088C34.6113 5.58865 34.7424 5.08531 35.0045 4.64084C35.2666 4.19258 35.6256 3.83929 36.0815 3.58097C36.5373 3.31885 37.0502 3.18779 37.62 3.18779C38.1936 3.18779 38.7065 3.31885 39.1585 3.58097C39.6106 3.83929 39.9658 4.19258 40.2241 4.64084C40.4862 5.08531 40.6173 5.58865 40.6173 6.15088C40.6173 6.7169 40.4862 7.22405 40.2241 7.67231C39.9658 8.11677 39.6106 8.46816 39.1585 8.72648C38.7065 8.9848 38.1936 9.11396 37.62 9.11396ZM37.6143 8.06549C37.96 8.06549 38.2677 7.98191 38.5374 7.81477C38.8109 7.64382 39.0256 7.41589 39.1813 7.13098C39.3409 6.84227 39.4206 6.51367 39.4206 6.14518C39.4206 5.78429 39.3409 5.46139 39.1813 5.17648C39.0256 4.88777 38.8109 4.65984 38.5374 4.49269C38.2677 4.32174 37.96 4.23627 37.6143 4.23627C37.2724 4.23627 36.9647 4.32174 36.6912 4.49269C36.4177 4.65984 36.2011 4.88777 36.0416 5.17648C35.8858 5.46139 35.808 5.78429 35.808 6.14518C35.808 6.51367 35.8858 6.84227 36.0416 7.13098C36.2011 7.41589 36.4177 7.64382 36.6912 7.81477C36.9647 7.98191 37.2724 8.06549 37.6143 8.06549ZM46.5947 9H45.5861L45.5178 8.27062C45.3088 8.53654 45.0448 8.74358 44.7257 8.89173C44.4066 9.03989 44.0533 9.11396 43.6658 9.11396C43.2594 9.11396 42.8966 9.03419 42.5775 8.87464C42.2584 8.71509 42.0076 8.49666 41.8253 8.21934C41.643 7.94203 41.5518 7.62672 41.5518 7.27343C41.5518 6.90115 41.6506 6.57445 41.8481 6.29333C42.0456 6.00842 42.3154 5.78619 42.6572 5.62664C42.9991 5.46329 43.3885 5.38162 43.8254 5.38162C44.0989 5.38162 44.3762 5.41391 44.6573 5.47849C44.9422 5.54307 45.1987 5.63424 45.4266 5.752V5.54117C45.4266 5.26385 45.3544 5.02643 45.2101 4.82889C45.0695 4.62755 44.8758 4.4737 44.6288 4.36733C44.3857 4.26096 44.116 4.20778 43.8197 4.20778C43.5576 4.20778 43.2898 4.25336 43.0162 4.34454C42.7465 4.43571 42.492 4.57626 42.2527 4.76621L41.8994 3.8146C42.2451 3.60946 42.6041 3.45371 42.9763 3.34734C43.3524 3.24098 43.7209 3.18779 44.0818 3.18779C44.5984 3.18779 45.0429 3.29036 45.4152 3.4955C45.7913 3.70063 46.0819 3.99314 46.287 4.37303C46.4922 4.74911 46.5947 5.19357 46.5947 5.70642V9ZM43.8938 8.12247C44.1635 8.12247 44.4123 8.06739 44.6402 7.95722C44.8682 7.84326 45.0524 7.68371 45.193 7.47857C45.3373 7.26963 45.4152 7.02651 45.4266 6.74919V6.66942C45.2329 6.52506 45.0144 6.413 44.7713 6.33322C44.532 6.24965 44.2869 6.20786 44.0362 6.20786C43.6525 6.20786 43.3334 6.29903 43.0789 6.48138C42.8244 6.66372 42.6971 6.89735 42.6971 7.18226C42.6971 7.36081 42.7484 7.52226 42.851 7.66661C42.9574 7.80717 43.0998 7.91923 43.2784 8.00281C43.4607 8.08258 43.6658 8.12247 43.8938 8.12247ZM49.2957 9H48.1276V3.30176H49.1475L49.1931 4.38442C49.3907 4.00834 49.6623 3.71583 50.008 3.50689C50.3575 3.29416 50.7582 3.18779 51.2103 3.18779C51.3205 3.18779 51.4306 3.19539 51.5408 3.21059C51.6548 3.22198 51.7687 3.24098 51.8827 3.26757L51.7345 4.32174C51.5142 4.26476 51.2977 4.23627 51.0849 4.23627C50.7317 4.23627 50.4201 4.32174 50.1504 4.49269C49.8807 4.65984 49.6699 4.89157 49.5179 5.18788C49.3698 5.48418 49.2957 5.82608 49.2957 6.21356V9ZM58.4414 9H57.41L57.3473 8.18515C57.089 8.47386 56.7775 8.70179 56.4128 8.86894C56.0519 9.03229 55.6549 9.11396 55.2219 9.11396C54.6748 9.11396 54.1848 8.9848 53.7517 8.72648C53.3187 8.46816 52.9768 8.11487 52.726 7.66661C52.4791 7.21835 52.3556 6.71311 52.3556 6.15088C52.3556 5.58485 52.4791 5.07961 52.726 4.63515C52.9768 4.18688 53.3187 3.83359 53.7517 3.57527C54.1848 3.31695 54.6748 3.18779 55.2219 3.18779C55.6321 3.18779 56.012 3.26187 56.3615 3.41002C56.7148 3.55818 57.0187 3.76521 57.2732 4.03113V0.452637H58.4414V9ZM55.4156 8.06549C55.7613 8.06549 56.0728 7.98571 56.3501 7.82616C56.6312 7.66661 56.8554 7.45008 57.0225 7.17656C57.1897 6.90305 57.2732 6.59154 57.2732 6.24205V6.04831C57.2732 5.69882 57.1897 5.38731 57.0225 5.1138C56.8554 4.84028 56.6312 4.62565 56.3501 4.4699C56.0728 4.31415 55.7613 4.23627 55.4156 4.23627C55.0623 4.23627 54.7451 4.31984 54.464 4.48699C54.1829 4.65414 53.9607 4.88207 53.7973 5.17078C53.634 5.45569 53.5523 5.78049 53.5523 6.14518C53.5523 6.50987 53.634 6.83657 53.7973 7.12528C53.9607 7.41399 54.1829 7.64382 54.464 7.81477C54.7451 7.98191 55.0623 8.06549 55.4156 8.06549Z" fill="#848CA8"/>
</svg>
