<svg width="24" height="22" viewBox="0 0 24 22" fill="none" xmlns="http://www.w3.org/2000/svg">
<path fill-rule="evenodd" clip-rule="evenodd" d="M2.76367 0C1.6591 0 0.763672 0.895429 0.763672 2V7.07936C0.763672 8.18393 1.6591 9.07936 2.76367 9.07936H7.96351C9.06808 9.07936 9.96351 8.18393 9.96351 7.07936V2C9.96351 0.89543 9.06808 0 7.96351 0H2.76367ZM15.9352 0C14.8306 0 13.9352 0.895429 13.9352 2V7.07936C13.9352 8.18393 14.8306 9.07936 15.9352 9.07936H21.135C22.2396 9.07936 23.135 8.18393 23.135 7.07936V2C23.135 0.89543 22.2396 0 21.135 0H15.9352ZM0.763672 14.9206C0.763672 13.8161 1.6591 12.9206 2.76367 12.9206H7.96351C9.06808 12.9206 9.96351 13.8161 9.96351 14.9206V20C9.96351 21.1046 9.06808 22 7.96351 22H2.76367C1.6591 22 0.763672 21.1046 0.763672 20V14.9206ZM15.9352 12.9206C14.8306 12.9206 13.9352 13.8161 13.9352 14.9206V20C13.9352 21.1046 14.8306 22 15.9352 22H21.135C22.2396 22 23.135 21.1046 23.135 20V14.9206C23.135 13.8161 22.2396 12.9206 21.135 12.9206H15.9352Z" fill="#848CA8"/>
</svg>
