<svg width="53" height="48" viewBox="0 0 53 48" fill="none" xmlns="http://www.w3.org/2000/svg">
<path d="M1.60754 43.2809V35.9697H3.90815C4.79526 35.9697 5.56213 36.1175 6.20877 36.4132C6.85541 36.7089 7.3542 37.1313 7.70514 37.6805C8.05609 38.2264 8.23156 38.8747 8.23156 39.6253C8.23156 40.3727 8.05609 41.0209 7.70514 41.5701C7.3542 42.1193 6.85541 42.5417 6.20877 42.8374C5.56213 43.1331 4.79526 43.2809 3.90815 43.2809H1.60754ZM2.89432 42.1501H3.9569C4.58404 42.1501 5.11695 42.0527 5.55563 41.8577C5.99755 41.6595 6.33387 41.3719 6.56458 40.995C6.79855 40.618 6.91553 40.1615 6.91553 39.6253C6.91553 39.0891 6.79855 38.6326 6.56458 38.2557C6.33387 37.8787 5.99755 37.5928 5.55563 37.3978C5.11695 37.1996 4.58404 37.1005 3.9569 37.1005H2.89432V42.1501ZM13.4616 43.2809H12.4185L12.3502 42.6814C12.1715 42.9024 11.9489 43.0746 11.6825 43.1981C11.416 43.3183 11.1203 43.3784 10.7954 43.3784C10.4509 43.3784 10.1439 43.3118 9.87416 43.1786C9.60445 43.0421 9.39161 42.8569 9.23564 42.6229C9.08291 42.389 9.00655 42.1225 9.00655 41.8236C9.00655 41.5084 9.08941 41.2322 9.25513 40.995C9.42411 40.7545 9.65319 40.566 9.94239 40.4295C10.2348 40.2931 10.5679 40.2248 10.9416 40.2248C11.1691 40.2248 11.3965 40.2508 11.624 40.3028C11.8547 40.3548 12.0675 40.4279 12.2625 40.5222V40.3662C12.2625 40.1517 12.204 39.9665 12.087 39.8105C11.9701 39.6546 11.8125 39.5343 11.6142 39.4498C11.416 39.3621 11.1934 39.3182 10.9465 39.3182C10.7223 39.3182 10.4981 39.3572 10.2738 39.4352C10.0496 39.51 9.84004 39.6221 9.64507 39.7715L9.30388 38.8308C9.61582 38.6586 9.93427 38.5286 10.2592 38.4409C10.5874 38.3531 10.9075 38.3093 11.2194 38.3093C11.6776 38.3093 12.074 38.4003 12.4087 38.5822C12.7434 38.761 13.0018 39.0177 13.1837 39.3524C13.3689 39.6838 13.4616 40.0754 13.4616 40.527V43.2809ZM11.044 42.4133C11.2552 42.4133 11.4501 42.3695 11.6289 42.2817C11.8108 42.194 11.9587 42.0721 12.0724 41.9162C12.1894 41.7569 12.2511 41.575 12.2576 41.3703V41.3166C12.1049 41.2062 11.9327 41.1217 11.741 41.0632C11.5493 41.0015 11.3559 40.9706 11.1609 40.9706C10.862 40.9706 10.6167 41.0388 10.4249 41.1753C10.2332 41.3085 10.1374 41.484 10.1374 41.7017C10.1374 41.8349 10.1764 41.9568 10.2543 42.0673C10.3323 42.1745 10.4396 42.259 10.576 42.3207C10.7158 42.3825 10.8717 42.4133 11.044 42.4133ZM14.3194 42.8618L14.5924 41.8187C14.6996 41.9259 14.8328 42.0234 14.992 42.1111C15.1513 42.1989 15.3202 42.2687 15.499 42.3207C15.6809 42.3695 15.858 42.3938 16.0303 42.3938C16.261 42.3938 16.4462 42.3467 16.5859 42.2525C16.7256 42.155 16.7955 42.0283 16.7955 41.8723C16.7955 41.7488 16.7533 41.6465 16.6688 41.5652C16.5843 41.4807 16.4738 41.4076 16.3373 41.3459C16.2008 41.2809 16.0514 41.2175 15.8889 41.1558C15.6744 41.0778 15.4567 40.9852 15.2358 40.878C15.0148 40.7675 14.8296 40.6229 14.6801 40.4442C14.5339 40.2622 14.4608 40.0217 14.4608 39.7228C14.4608 39.4336 14.5339 39.1834 14.6801 38.9722C14.8296 38.761 15.0375 38.5985 15.304 38.4847C15.5705 38.3678 15.8808 38.3093 16.235 38.3093C16.7939 38.3093 17.3512 38.449 17.9068 38.7285L17.5607 39.713C17.4568 39.6351 17.33 39.5636 17.1806 39.4986C17.0311 39.4336 16.8784 39.3816 16.7224 39.3426C16.5664 39.3036 16.4251 39.2841 16.2983 39.2841C16.1131 39.2841 15.9653 39.3247 15.8548 39.406C15.7443 39.4872 15.6891 39.5944 15.6891 39.7277C15.6891 39.8186 15.7199 39.9015 15.7817 39.9762C15.8434 40.0477 15.9393 40.1176 16.0692 40.1858C16.1992 40.2541 16.3666 40.3304 16.5713 40.4149C16.7922 40.4994 17.0132 40.5985 17.2342 40.7122C17.4584 40.8227 17.6452 40.9706 17.7947 41.1558C17.9474 41.3378 18.0238 41.5799 18.0238 41.8821C18.0238 42.181 17.9426 42.4426 17.7801 42.6668C17.6209 42.891 17.3966 43.0665 17.1074 43.1932C16.8215 43.3167 16.4868 43.3784 16.1034 43.3784C15.4665 43.3784 14.8718 43.2062 14.3194 42.8618ZM18.9791 43.2809V35.9697H20.1782V39.0307C20.5356 38.5497 21.0604 38.3093 21.7525 38.3093C22.3764 38.3093 22.8639 38.501 23.2148 38.8844C23.5657 39.2646 23.7412 39.7943 23.7412 40.4734V43.2809H22.5422V40.7805C22.5422 40.3386 22.4398 39.9957 22.2351 39.752C22.0304 39.5051 21.7428 39.3816 21.3724 39.3816C20.9987 39.3816 20.7062 39.5067 20.495 39.7569C20.2838 40.0039 20.1782 40.3451 20.1782 40.7805V43.2809H18.9791ZM26.0028 43.2809H24.9451V35.9697H26.1442V38.9965C26.3586 38.7788 26.6072 38.6099 26.8899 38.4896C27.1759 38.3694 27.4862 38.3093 27.8209 38.3093C28.2791 38.3093 28.6869 38.4198 29.0443 38.6407C29.4018 38.8617 29.6828 39.1639 29.8876 39.5473C30.0955 39.9275 30.1995 40.3597 30.1995 40.8439C30.1995 41.328 30.0955 41.7618 29.8876 42.1453C29.6828 42.5254 29.4018 42.826 29.0443 43.047C28.6869 43.2679 28.2791 43.3784 27.8209 43.3784C27.4635 43.3784 27.1336 43.3102 26.8314 43.1737C26.5325 43.034 26.2758 42.8439 26.0613 42.6034L26.0028 43.2809ZM27.5577 42.3012C27.8307 42.3012 28.0727 42.2379 28.284 42.1111C28.4984 41.9844 28.6658 41.8122 28.786 41.5945C28.9095 41.3735 28.9712 41.1233 28.9712 40.8439C28.9712 40.5644 28.9095 40.3158 28.786 40.0981C28.6658 39.8771 28.4984 39.7033 28.284 39.5766C28.0727 39.4466 27.8307 39.3816 27.5577 39.3816C27.301 39.3816 27.0687 39.4401 26.8607 39.5571C26.656 39.674 26.4903 39.8333 26.3635 40.0347C26.2368 40.2362 26.1637 40.4653 26.1442 40.722V40.956C26.1637 41.2159 26.2352 41.4483 26.3586 41.653C26.4854 41.8544 26.6527 42.0137 26.8607 42.1306C27.0687 42.2444 27.301 42.3012 27.5577 42.3012ZM33.4311 43.3784C32.9339 43.3784 32.4887 43.2679 32.0956 43.047C31.7056 42.826 31.3969 42.5254 31.1695 42.1453C30.9453 41.7618 30.8332 41.328 30.8332 40.8439C30.8332 40.3597 30.9453 39.9275 31.1695 39.5473C31.3969 39.1639 31.7056 38.8617 32.0956 38.6407C32.4887 38.4198 32.9339 38.3093 33.4311 38.3093C33.925 38.3093 34.3669 38.4198 34.7569 38.6407C35.1468 38.8617 35.4523 39.1639 35.6732 39.5473C35.8974 39.9275 36.0095 40.3597 36.0095 40.8439C36.0095 41.328 35.8974 41.7618 35.6732 42.1453C35.4523 42.5254 35.1468 42.826 34.7569 43.047C34.3669 43.2679 33.925 43.3784 33.4311 43.3784ZM33.4213 42.3012C33.6813 42.3012 33.9136 42.2379 34.1184 42.1111C34.3231 41.9844 34.4839 41.8106 34.6009 41.5896C34.7211 41.3686 34.7812 41.1184 34.7812 40.839C34.7812 40.5628 34.7211 40.3158 34.6009 40.0981C34.4839 39.8771 34.3231 39.7033 34.1184 39.5766C33.9136 39.4498 33.6813 39.3865 33.4213 39.3865C33.1646 39.3865 32.9323 39.4498 32.7243 39.5766C32.5196 39.7033 32.3571 39.8771 32.2369 40.0981C32.1199 40.3158 32.0614 40.5628 32.0614 40.839C32.0614 41.1184 32.1199 41.3686 32.2369 41.5896C32.3571 41.8106 32.5196 41.9844 32.7243 42.1111C32.9323 42.2379 33.1646 42.3012 33.4213 42.3012ZM41.1859 43.2809H40.1428L40.0746 42.6814C39.8959 42.9024 39.6733 43.0746 39.4068 43.1981C39.1404 43.3183 38.8447 43.3784 38.5197 43.3784C38.1753 43.3784 37.8682 43.3118 37.5985 43.1786C37.3288 43.0421 37.116 42.8569 36.96 42.6229C36.8073 42.389 36.7309 42.1225 36.7309 41.8236C36.7309 41.5084 36.8138 41.2322 36.9795 40.995C37.1485 40.7545 37.3776 40.566 37.6668 40.4295C37.9592 40.2931 38.2923 40.2248 38.666 40.2248C38.8934 40.2248 39.1209 40.2508 39.3483 40.3028C39.5791 40.3548 39.7919 40.4279 39.9869 40.5222V40.3662C39.9869 40.1517 39.9284 39.9665 39.8114 39.8105C39.6944 39.6546 39.5368 39.5343 39.3386 39.4498C39.1404 39.3621 38.9178 39.3182 38.6708 39.3182C38.4466 39.3182 38.2224 39.3572 37.9982 39.4352C37.774 39.51 37.5644 39.6221 37.3694 39.7715L37.0282 38.8308C37.3402 38.6586 37.6586 38.5286 37.9836 38.4409C38.3118 38.3531 38.6318 38.3093 38.9438 38.3093C39.402 38.3093 39.7984 38.4003 40.1331 38.5822C40.4678 38.761 40.7261 39.0177 40.9081 39.3524C41.0933 39.6838 41.1859 40.0754 41.1859 40.527V43.2809ZM38.7683 42.4133C38.9795 42.4133 39.1745 42.3695 39.3532 42.2817C39.5352 42.194 39.683 42.0721 39.7968 41.9162C39.9138 41.7569 39.9755 41.575 39.982 41.3703V41.3166C39.8293 41.2062 39.657 41.1217 39.4653 41.0632C39.2736 41.0015 39.0803 40.9706 38.8853 40.9706C38.5864 40.9706 38.341 41.0388 38.1493 41.1753C37.9576 41.3085 37.8617 41.484 37.8617 41.7017C37.8617 41.8349 37.9007 41.9568 37.9787 42.0673C38.0567 42.1745 38.1639 42.259 38.3004 42.3207C38.4401 42.3825 38.5961 42.4133 38.7683 42.4133ZM43.584 43.2809H42.385V38.4068H43.428L43.4719 39.2939C43.6409 38.9819 43.8683 38.7398 44.1543 38.5676C44.4435 38.3954 44.7749 38.3093 45.1486 38.3093C45.2461 38.3093 45.3452 38.3158 45.446 38.3288C45.5499 38.3418 45.6523 38.3613 45.753 38.3873L45.6068 39.4693C45.4053 39.4108 45.2104 39.3816 45.0219 39.3816C44.736 39.3816 44.4841 39.4482 44.2664 39.5814C44.0519 39.7147 43.8846 39.8999 43.7644 40.1371C43.6441 40.3711 43.584 40.644 43.584 40.956V43.2809ZM51.3925 43.2809H50.3348L50.2714 42.5986C50.0602 42.8423 49.8035 43.034 49.5013 43.1737C49.1991 43.3102 48.8709 43.3784 48.5167 43.3784C48.0585 43.3784 47.6491 43.2679 47.2884 43.047C46.9277 42.826 46.6434 42.5254 46.4354 42.1453C46.2307 41.7618 46.1283 41.328 46.1283 40.8439C46.1283 40.3597 46.2307 39.9275 46.4354 39.5473C46.6434 39.1639 46.9277 38.8617 47.2884 38.6407C47.6491 38.4198 48.0585 38.3093 48.5167 38.3093C48.8514 38.3093 49.1617 38.3694 49.4477 38.4896C49.7336 38.6099 49.9822 38.7788 50.1934 38.9965V35.9697H51.3925V43.2809ZM48.7799 42.3012C49.0399 42.3012 49.2771 42.2427 49.4915 42.1258C49.706 42.0055 49.8766 41.8414 50.0033 41.6335C50.1301 41.4255 50.1934 41.1883 50.1934 40.9218V40.7512C50.1934 40.488 50.1301 40.2541 50.0033 40.0494C49.8766 39.8414 49.706 39.6789 49.4915 39.5619C49.2771 39.4417 49.0399 39.3816 48.7799 39.3816C48.5069 39.3816 48.2632 39.4466 48.0488 39.5766C47.8343 39.7033 47.6653 39.8771 47.5419 40.0981C47.4184 40.3158 47.3566 40.5628 47.3566 40.839C47.3566 41.1184 47.4184 41.3686 47.5419 41.5896C47.6653 41.8106 47.8343 41.9844 48.0488 42.1111C48.2632 42.2379 48.5069 42.3012 48.7799 42.3012Z" fill="white"/>
<path fill-rule="evenodd" clip-rule="evenodd" d="M15.3751 0.131104C14.2706 0.131104 13.3751 1.02653 13.3751 2.1311V9.33708C13.3751 10.4417 14.2706 11.3371 15.3751 11.3371H22.5811C23.6857 11.3371 24.5811 10.4417 24.5811 9.33709V2.1311C24.5811 1.02653 23.6857 0.131104 22.5811 0.131104H15.3751ZM31.4188 0.131104C30.3143 0.131104 29.4188 1.02653 29.4188 2.1311V9.33708C29.4188 10.4417 30.3143 11.3371 31.4188 11.3371H38.6248C39.7294 11.3371 40.6248 10.4417 40.6248 9.33709V2.1311C40.6248 1.02653 39.7294 0.131104 38.6248 0.131104H31.4188ZM13.3751 18.0781C13.3751 16.9735 14.2706 16.0781 15.3751 16.0781H22.5811C23.6857 16.0781 24.5811 16.9735 24.5811 18.0781V25.2841C24.5811 26.3886 23.6857 27.2841 22.5811 27.2841H15.3751C14.2706 27.2841 13.3751 26.3886 13.3751 25.2841V18.0781ZM31.4188 16.0781C30.3143 16.0781 29.4188 16.9735 29.4188 18.0781V25.2841C29.4188 26.3886 30.3143 27.2841 31.4188 27.2841H38.6248C39.7294 27.2841 40.6248 26.3886 40.6248 25.2841V18.0781C40.6248 16.9735 39.7294 16.0781 38.6248 16.0781H31.4188Z" fill="white"/>
</svg>
