<svg width="88" height="45" viewBox="0 0 88 45" xmlns="http://www.w3.org/2000/svg">
<path d="M39.2126 15.9086L41.1824 15.3498L53.0426 3.54748C53.1361 3.45321 53.1882 3.32654 53.1876 3.19482C53.187 3.06311 53.1337 2.93692 53.0392 2.84352L52.3289 2.13736C52.283 2.09099 52.2282 2.05406 52.1676 2.02875C52.1071 2.00344 52.042 1.99025 51.9762 1.98994C51.9104 1.98963 51.8452 2.00222 51.7844 2.02696C51.7235 2.05171 51.6684 2.08812 51.622 2.13406L39.7932 13.9056L39.2115 15.9075L39.2126 15.9086ZM53.735 0.738245L54.4453 1.4455C55.4251 2.42115 55.4341 3.99515 54.4632 4.9609L42.2417 17.124L38.0314 18.3163C37.7744 18.3871 37.4993 18.3546 37.2665 18.2262C37.0338 18.0977 36.8623 17.8837 36.7898 17.6311C36.7359 17.4494 36.7351 17.2565 36.7876 17.0745L38.0124 12.8507L50.2014 0.719546C50.4332 0.490053 50.7091 0.308238 51.0131 0.184704C51.3171 0.0611713 51.643 -0.00160691 51.972 3.12523e-05C52.3009 0.00166941 52.6262 0.0676911 52.9289 0.194246C53.2315 0.3208 53.5056 0.506455 53.735 0.738245ZM40.8502 2.00647C41.405 2.00647 41.8547 2.45414 41.8547 3.00631C41.8556 3.13684 41.8303 3.26626 41.7803 3.38717C41.7303 3.50808 41.6565 3.61811 41.5632 3.71097C41.4699 3.80383 41.3589 3.87769 41.2366 3.92834C41.1143 3.97899 40.983 4.00543 40.8502 4.00615H36.8323C35.7227 4.00615 34.8234 4.9015 34.8234 6.00474V18.0006C34.8234 19.105 35.7227 20.0003 36.8323 20.0003H48.886C49.9956 20.0003 50.8961 19.105 50.8961 18.0006V14.0024C50.8961 13.4502 51.3457 13.0025 51.9005 13.0025C52.4553 13.0025 52.905 13.4502 52.905 14.0035V18.0006C52.905 20.2093 51.1052 22 48.886 22H36.8323C34.6131 22 32.8145 20.2093 32.8145 18.0006V6.00474C32.8145 3.79717 34.6131 2.00647 36.8323 2.00647H40.8502Z" />
<path d="M8.13526 40V31.4526H10.8647C11.5713 31.4526 12.1772 31.5647 12.6825 31.7888C13.1915 32.0092 13.5809 32.3264 13.8506 32.7404C14.1203 33.1507 14.2552 33.6427 14.2552 34.2163C14.2552 34.7861 14.1203 35.28 13.8506 35.6978C13.5809 36.1119 13.1915 36.431 12.6825 36.6551C12.1772 36.8793 11.5732 36.9913 10.8704 36.9913H9.38888V40H8.13526ZM9.38888 35.8859H10.7508C11.4611 35.8859 12.0082 35.7396 12.3919 35.4471C12.7793 35.1508 12.9731 34.7405 12.9731 34.2163C12.9731 33.692 12.7793 33.2856 12.3919 32.9969C12.0082 32.7044 11.4611 32.5581 10.7508 32.5581H9.38888V35.8859ZM17.6513 40.114C17.0815 40.114 16.5687 39.9848 16.1128 39.7265C15.6569 39.4682 15.298 39.1168 15.0358 38.6723C14.7737 38.224 14.6427 37.7169 14.6427 37.1509C14.6427 36.5887 14.7737 36.0853 15.0358 35.6408C15.298 35.1926 15.6569 34.8393 16.1128 34.581C16.5687 34.3189 17.0815 34.1878 17.6513 34.1878C18.225 34.1878 18.7378 34.3189 19.1899 34.581C19.6419 34.8393 19.9971 35.1926 20.2554 35.6408C20.5175 36.0853 20.6486 36.5887 20.6486 37.1509C20.6486 37.7169 20.5175 38.224 20.2554 38.6723C19.9971 39.1168 19.6419 39.4682 19.1899 39.7265C18.7378 39.9848 18.225 40.114 17.6513 40.114ZM17.6456 39.0655C17.9913 39.0655 18.299 38.9819 18.5687 38.8148C18.8423 38.6438 19.0569 38.4159 19.2126 38.131C19.3722 37.8423 19.452 37.5137 19.452 37.1452C19.452 36.7843 19.3722 36.4614 19.2126 36.1765C19.0569 35.8878 18.8423 35.6598 18.5687 35.4927C18.299 35.3217 17.9913 35.2363 17.6456 35.2363C17.3037 35.2363 16.996 35.3217 16.7225 35.4927C16.449 35.6598 16.2325 35.8878 16.0729 36.1765C15.9172 36.4614 15.8393 36.7843 15.8393 37.1452C15.8393 37.5137 15.9172 37.8423 16.0729 38.131C16.2325 38.4159 16.449 38.6438 16.7225 38.8148C16.996 38.9819 17.3037 39.0655 17.6456 39.0655ZM21.4691 39.5043L21.7541 38.4558C21.8832 38.5849 22.0371 38.6989 22.2156 38.7977C22.398 38.8964 22.5898 38.9743 22.7911 39.0313C22.9963 39.0845 23.1976 39.1111 23.3952 39.1111C23.7067 39.1111 23.9574 39.0446 24.1473 38.9116C24.3373 38.7787 24.4322 38.602 24.4322 38.3817C24.4322 38.2183 24.3791 38.0835 24.2727 37.9771C24.1701 37.867 24.0315 37.772 23.8567 37.6922C23.6858 37.6124 23.5015 37.5346 23.304 37.4586C23.0495 37.3636 22.7949 37.2534 22.5404 37.1281C22.2897 37.0027 22.0789 36.8356 21.9079 36.6266C21.737 36.4177 21.6515 36.1423 21.6515 35.8004C21.6515 35.4737 21.7351 35.1907 21.9022 34.9514C22.0694 34.7082 22.303 34.5202 22.6031 34.3872C22.9032 34.2543 23.2489 34.1878 23.6402 34.1878C24.248 34.1878 24.8501 34.3397 25.4465 34.6437L25.1046 35.6408C24.9831 35.5535 24.8387 35.4756 24.6716 35.4072C24.5044 35.3388 24.3335 35.2857 24.1587 35.2477C23.984 35.2059 23.8225 35.185 23.6744 35.185C23.4274 35.185 23.228 35.2401 23.0761 35.3502C22.9279 35.4604 22.8538 35.6086 22.8538 35.7947C22.8538 35.9087 22.8899 36.0131 22.9621 36.1081C23.0343 36.1993 23.1482 36.2904 23.304 36.3816C23.4635 36.469 23.6782 36.5678 23.9479 36.6779C24.2062 36.7805 24.4645 36.8983 24.7228 37.0312C24.9812 37.1642 25.1958 37.337 25.3667 37.5498C25.5415 37.7625 25.6289 38.0417 25.6289 38.3874C25.6289 38.7293 25.5377 39.0313 25.3554 39.2934C25.173 39.5517 24.9185 39.7531 24.5918 39.8974C24.2689 40.0418 23.8928 40.114 23.4635 40.114C22.7532 40.114 22.0884 39.9107 21.4691 39.5043ZM30.347 39.8575C29.9481 40.0285 29.5626 40.114 29.1903 40.114C28.818 40.114 28.4913 40.0342 28.2102 39.8746C27.9329 39.7151 27.7144 39.491 27.5549 39.2022C27.3991 38.9097 27.3212 38.5735 27.3212 38.1937V35.3445H26.3241V34.3018H27.3782V32.8772H28.4894V34.3018H30.1533V35.3445H28.4894V37.9771C28.4894 38.3114 28.5787 38.5773 28.7572 38.7749C28.9395 38.9686 29.1732 39.0655 29.4581 39.0655C29.6974 39.0655 29.9348 38.9933 30.1704 38.849L30.347 39.8575ZM41.5669 38.9116C41.1718 39.3067 40.7007 39.6163 40.1537 39.8404C39.6105 40.0608 39.0178 40.1709 38.3758 40.1709C37.7338 40.1709 37.1412 40.0608 36.598 39.8404C36.0548 39.6201 35.5818 39.3105 35.1791 38.9116C34.7802 38.509 34.4687 38.0379 34.2446 37.4985C34.0243 36.9552 33.9141 36.3645 33.9141 35.7263C33.9141 35.0843 34.0243 34.4936 34.2446 33.9542C34.4687 33.4109 34.7802 32.9399 35.1791 32.541C35.5818 32.1421 36.0548 31.8325 36.598 31.6122C37.1412 31.3919 37.7338 31.2817 38.3758 31.2817C39.014 31.2817 39.6048 31.3938 40.148 31.6179C40.695 31.8382 41.1642 32.144 41.5555 32.5353L40.6836 33.4242C40.3987 33.1013 40.0568 32.8487 39.6579 32.6664C39.2629 32.4802 38.8298 32.3871 38.3587 32.3871C37.9029 32.3871 37.4831 32.4707 37.0994 32.6379C36.7157 32.8012 36.3815 33.0348 36.0965 33.3388C35.8116 33.6389 35.5894 33.9922 35.4298 34.3986C35.2741 34.8051 35.1962 35.2477 35.1962 35.7263C35.1962 36.205 35.2741 36.6475 35.4298 37.054C35.5894 37.4605 35.8116 37.8157 36.0965 38.1196C36.3815 38.4197 36.7157 38.6533 37.0994 38.8205C37.4831 38.9838 37.9029 39.0655 38.3587 39.0655C38.8298 39.0655 39.2629 38.9743 39.6579 38.792C40.0568 38.6058 40.3968 38.3513 40.6779 38.0284L41.5669 38.9116ZM44.1083 40H42.9401V34.3018H43.9601L44.0057 35.3844C44.2032 35.0083 44.4749 34.7158 44.8205 34.5069C45.17 34.2942 45.5708 34.1878 46.0229 34.1878C46.133 34.1878 46.2432 34.1954 46.3534 34.2106C46.4673 34.222 46.5813 34.241 46.6953 34.2676L46.5471 35.3217C46.3268 35.2648 46.1102 35.2363 45.8975 35.2363C45.5442 35.2363 45.2327 35.3217 44.963 35.4927C44.6933 35.6598 44.4825 35.8916 44.3305 36.1879C44.1823 36.4842 44.1083 36.8261 44.1083 37.2136V40ZM52.6727 39.3219C51.9661 39.8499 51.1893 40.114 50.3421 40.114C49.7381 40.114 49.1968 39.981 48.7181 39.7151C48.2395 39.4492 47.8615 39.0864 47.5842 38.6267C47.3069 38.1671 47.1682 37.6485 47.1682 37.0711C47.1682 36.5203 47.2955 36.0283 47.55 35.5953C47.8045 35.1584 48.1521 34.8146 48.5928 34.5639C49.0334 34.3132 49.533 34.1878 50.0914 34.1878C50.6688 34.1878 51.176 34.3246 51.6129 34.5981C52.0535 34.8716 52.3954 35.2534 52.6385 35.7434C52.8855 36.2297 53.0089 36.7938 53.0089 37.4358V37.6181H48.4332C48.5016 37.9144 48.6308 38.1747 48.8207 38.3988C49.0107 38.6191 49.2462 38.792 49.5273 38.9173C49.8084 39.0389 50.1256 39.0997 50.4789 39.0997C51.1095 39.0997 51.6888 38.8945 52.2169 38.4843L52.6727 39.3219ZM48.3819 36.809H51.9206C51.8826 36.4899 51.7838 36.2126 51.6242 35.977C51.4647 35.7377 51.2577 35.5516 51.0031 35.4186C50.7524 35.2819 50.4694 35.2135 50.1541 35.2135C49.835 35.2135 49.5482 35.2819 49.2937 35.4186C49.0391 35.5516 48.8321 35.7377 48.6726 35.977C48.5168 36.2164 48.4199 36.4937 48.3819 36.809ZM58.9921 40H57.9835L57.9151 39.2706C57.7062 39.5365 57.4422 39.7436 57.123 39.8917C56.8039 40.0399 56.4507 40.114 56.0632 40.114C55.6567 40.114 55.2939 40.0342 54.9748 39.8746C54.6557 39.7151 54.405 39.4967 54.2226 39.2193C54.0403 38.942 53.9491 38.6267 53.9491 38.2734C53.9491 37.9011 54.0479 37.5744 54.2454 37.2933C54.443 37.0084 54.7127 36.7862 55.0546 36.6266C55.3965 36.4633 55.7859 36.3816 56.2227 36.3816C56.4962 36.3816 56.7736 36.4139 57.0547 36.4785C57.3396 36.5431 57.596 36.6342 57.8239 36.752V36.5412C57.8239 36.2639 57.7518 36.0264 57.6074 35.8289C57.4668 35.6275 57.2731 35.4737 57.0262 35.3673C56.7831 35.261 56.5133 35.2078 56.217 35.2078C55.9549 35.2078 55.6871 35.2534 55.4136 35.3445C55.1439 35.4357 54.8893 35.5763 54.65 35.7662L54.2967 34.8146C54.6424 34.6095 55.0014 34.4537 55.3737 34.3473C55.7498 34.241 56.1183 34.1878 56.4791 34.1878C56.9958 34.1878 57.4403 34.2904 57.8125 34.4955C58.1886 34.7006 58.4792 34.9931 58.6844 35.373C58.8895 35.7491 58.9921 36.1936 58.9921 36.7064V40ZM56.2911 39.1225C56.5608 39.1225 56.8096 39.0674 57.0376 38.9572C57.2655 38.8433 57.4497 38.6837 57.5903 38.4786C57.7347 38.2696 57.8125 38.0265 57.8239 37.7492V37.6694C57.6302 37.5251 57.4118 37.413 57.1686 37.3332C56.9293 37.2496 56.6843 37.2079 56.4336 37.2079C56.0499 37.2079 55.7308 37.299 55.4763 37.4814C55.2217 37.6637 55.0945 37.8973 55.0945 38.1823C55.0945 38.3608 55.1458 38.5223 55.2483 38.6666C55.3547 38.8072 55.4972 38.9192 55.6757 39.0028C55.858 39.0826 56.0632 39.1225 56.2911 39.1225ZM63.8869 39.8575C63.488 40.0285 63.1024 40.114 62.7301 40.114C62.3578 40.114 62.0311 40.0342 61.75 39.8746C61.4727 39.7151 61.2543 39.491 61.0947 39.2022C60.939 38.9097 60.8611 38.5735 60.8611 38.1937V35.3445H59.8639V34.3018H60.9181V32.8772H62.0292V34.3018H63.6931V35.3445H62.0292V37.9771C62.0292 38.3114 62.1185 38.5773 62.2971 38.7749C62.4794 38.9686 62.713 39.0655 62.9979 39.0655C63.2373 39.0655 63.4747 38.9933 63.7102 38.849L63.8869 39.8575ZM65.471 32.6493C65.2924 32.6493 65.1424 32.5866 65.0208 32.4612C64.8993 32.3359 64.8385 32.1839 64.8385 32.0054C64.8385 31.8268 64.8993 31.6768 65.0208 31.5552C65.1424 31.4298 65.2924 31.3672 65.471 31.3672C65.6533 31.3672 65.8053 31.4298 65.9268 31.5552C66.0522 31.6768 66.1149 31.8268 66.1149 32.0054C66.1149 32.1839 66.0522 32.3359 65.9268 32.4612C65.8053 32.5866 65.6533 32.6493 65.471 32.6493ZM66.0522 40H64.8841V34.3018H66.0522V40ZM70.3031 40.114C69.7333 40.114 69.2204 39.9848 68.7646 39.7265C68.3087 39.4682 67.9497 39.1168 67.6876 38.6723C67.4255 38.224 67.2944 37.7169 67.2944 37.1509C67.2944 36.5887 67.4255 36.0853 67.6876 35.6408C67.9497 35.1926 68.3087 34.8393 68.7646 34.581C69.2204 34.3189 69.7333 34.1878 70.3031 34.1878C70.8767 34.1878 71.3896 34.3189 71.8416 34.581C72.2937 34.8393 72.6489 35.1926 72.9072 35.6408C73.1693 36.0853 73.3004 36.5887 73.3004 37.1509C73.3004 37.7169 73.1693 38.224 72.9072 38.6723C72.6489 39.1168 72.2937 39.4682 71.8416 39.7265C71.3896 39.9848 70.8767 40.114 70.3031 40.114ZM70.2974 39.0655C70.6431 39.0655 70.9508 38.9819 71.2205 38.8148C71.494 38.6438 71.7087 38.4159 71.8644 38.131C72.024 37.8423 72.1037 37.5137 72.1037 37.1452C72.1037 36.7843 72.024 36.4614 71.8644 36.1765C71.7087 35.8878 71.494 35.6598 71.2205 35.4927C70.9508 35.3217 70.6431 35.2363 70.2974 35.2363C69.9555 35.2363 69.6478 35.3217 69.3743 35.4927C69.1008 35.6598 68.8842 35.8878 68.7247 36.1765C68.5689 36.4614 68.491 36.7843 68.491 37.1452C68.491 37.5137 68.5689 37.8423 68.7247 38.131C68.8842 38.4159 69.1008 38.6438 69.3743 38.8148C69.6478 38.9819 69.9555 39.0655 70.2974 39.0655ZM79.973 40H78.8049V36.9059C78.8049 36.4006 78.6662 35.9979 78.3889 35.6978C78.1154 35.3977 77.7469 35.2477 77.2834 35.2477C76.8048 35.2477 76.4192 35.4072 76.1267 35.7263C75.8342 36.0454 75.6879 36.469 75.6879 36.997V40H74.5198V34.3018H75.5056L75.5455 35.2192C75.7544 34.8849 76.0279 34.6304 76.366 34.4556C76.7041 34.2771 77.1011 34.1878 77.5569 34.1878C78.3053 34.1878 78.8941 34.4138 79.3234 34.8659C79.7565 35.3179 79.973 35.941 79.973 36.7349V40Z" />
</svg>
