<svg width="51" height="10" viewBox="0 0 51 10" fill="none" xmlns="http://www.w3.org/2000/svg">
<path d="M0.729741 8.13957L1.32806 7.17656C1.58258 7.3817 1.8314 7.55265 2.07453 7.6894C2.32145 7.82236 2.57027 7.92113 2.821 7.98571C3.07172 8.04649 3.32814 8.07688 3.59026 8.07688C3.94735 8.07688 4.25885 8.0199 4.52477 7.90594C4.79069 7.79197 4.99772 7.63242 5.14588 7.42729C5.29403 7.22215 5.36811 6.98662 5.36811 6.7207C5.36811 6.4206 5.28074 6.17177 5.10599 5.97423C4.93504 5.77669 4.71091 5.60765 4.4336 5.46709C4.15628 5.32273 3.85998 5.18598 3.54467 5.05682C3.26736 4.94285 2.99004 4.81939 2.71273 4.68643C2.43921 4.54967 2.18849 4.39202 1.96056 4.21348C1.73643 4.03493 1.55599 3.8184 1.41923 3.56388C1.28627 3.30556 1.21979 2.99405 1.21979 2.62937C1.21979 2.16211 1.33755 1.75184 1.57308 1.39854C1.80861 1.04525 2.13341 0.771738 2.54748 0.577998C2.96535 0.384258 3.4459 0.287388 3.98914 0.287388C4.35762 0.287388 4.73371 0.336772 5.11739 0.435542C5.50487 0.530513 5.88285 0.672969 6.25134 0.86291L5.74419 1.8829C5.47828 1.72714 5.19526 1.60558 4.89516 1.51821C4.59885 1.43083 4.31204 1.38715 4.03472 1.38715C3.73082 1.38715 3.463 1.43653 3.23127 1.5353C3.00334 1.63407 2.82479 1.77273 2.69563 1.95127C2.56647 2.12982 2.50189 2.33875 2.50189 2.57808C2.50189 2.8478 2.58357 3.07573 2.74692 3.26187C2.91027 3.44801 3.123 3.61136 3.38512 3.75192C3.65104 3.88868 3.93215 4.02164 4.22846 4.1508C4.51717 4.27996 4.80398 4.41671 5.0889 4.56107C5.37761 4.70163 5.63783 4.86877 5.86956 5.06251C6.10508 5.25625 6.29312 5.48798 6.43368 5.7577C6.57804 6.02362 6.65021 6.34462 6.65021 6.7207C6.65021 7.21075 6.52485 7.64002 6.27413 8.00851C6.02341 8.37319 5.67202 8.65811 5.21996 8.86324C4.77169 9.06838 4.24556 9.17095 3.64154 9.17095C3.10591 9.17095 2.59307 9.08547 2.10302 8.91453C1.61677 8.73978 1.15901 8.48146 0.729741 8.13957ZM12.8499 8.15096C12.5726 8.45867 12.2402 8.69609 11.8527 8.86324C11.4652 9.03039 11.0455 9.11396 10.5934 9.11396C10.0236 9.11396 9.51073 8.9848 9.05487 8.72648C8.60281 8.46816 8.24572 8.11487 7.9836 7.66661C7.72148 7.21835 7.59042 6.71311 7.59042 6.15088C7.59042 5.58485 7.72148 5.07961 7.9836 4.63515C8.24572 4.18688 8.60281 3.83359 9.05487 3.57527C9.51073 3.31695 10.0236 3.18779 10.5934 3.18779C11.0417 3.18779 11.4595 3.27137 11.847 3.43852C12.2345 3.60187 12.5669 3.83739 12.8442 4.1451L12.1547 4.86877C11.9686 4.67124 11.7444 4.51928 11.4823 4.41292C11.224 4.30275 10.9486 4.24767 10.6561 4.24767C10.2952 4.24767 9.97419 4.32934 9.69308 4.49269C9.41196 4.65604 9.19163 4.88017 9.03208 5.16508C8.87253 5.4462 8.79275 5.7729 8.79275 6.14518C8.79275 6.51367 8.87253 6.84227 9.03208 7.13098C9.19163 7.41969 9.41196 7.64572 9.69308 7.80907C9.97419 7.97242 10.2952 8.05409 10.6561 8.05409C10.9486 8.05409 11.2259 7.99901 11.488 7.88884C11.7501 7.77868 11.9724 7.62672 12.1547 7.43298L12.8499 8.15096ZM14.0636 9V0.452637H15.2318V4.09381C15.6534 3.4898 16.2935 3.18779 17.1521 3.18779C17.8928 3.18779 18.4722 3.41192 18.89 3.86019C19.3079 4.30845 19.5168 4.93335 19.5168 5.73491V9H18.3487V6.01982C18.3487 5.45379 18.2119 5.01503 17.9384 4.70353C17.6687 4.39202 17.2907 4.23627 16.8045 4.23627C16.3144 4.23627 15.9289 4.39582 15.6477 4.71492C15.3704 5.03022 15.2318 5.46519 15.2318 6.01982V9H14.0636ZM26.1325 8.32191C25.4259 8.84995 24.6491 9.11396 23.8019 9.11396C23.1979 9.11396 22.6566 8.98101 22.1779 8.71509C21.6993 8.44917 21.3213 8.08638 21.044 7.62672C20.7667 7.16707 20.628 6.64853 20.628 6.0711C20.628 5.52027 20.7553 5.02833 21.0098 4.59526C21.2643 4.15839 21.6119 3.8146 22.0526 3.56388C22.4932 3.31315 22.9928 3.18779 23.5512 3.18779C24.1286 3.18779 24.6358 3.32455 25.0726 3.59807C25.5133 3.87158 25.8552 4.25336 26.0983 4.74341C26.3452 5.22966 26.4687 5.79379 26.4687 6.43579V6.61813H21.893C21.9614 6.91444 22.0906 7.17466 22.2805 7.39879C22.4704 7.61913 22.706 7.79197 22.9871 7.91733C23.2682 8.0389 23.5854 8.09968 23.9387 8.09968C24.5693 8.09968 25.1486 7.89454 25.6766 7.48427L26.1325 8.32191ZM21.8417 5.80898H25.3803C25.3423 5.48988 25.2436 5.21257 25.084 4.97704C24.9245 4.73771 24.7174 4.55157 24.4629 4.41861C24.2122 4.28186 23.9292 4.21348 23.6139 4.21348C23.2948 4.21348 23.008 4.28186 22.7534 4.41861C22.4989 4.55157 22.2919 4.73771 22.1323 4.97704C21.9766 5.21637 21.8797 5.49368 21.8417 5.80898ZM33.3579 9H32.3265L32.2638 8.18515C32.0055 8.47386 31.694 8.70179 31.3293 8.86894C30.9684 9.03229 30.5714 9.11396 30.1384 9.11396C29.5913 9.11396 29.1013 8.9848 28.6682 8.72648C28.2352 8.46816 27.8933 8.11487 27.6425 7.66661C27.3956 7.21835 27.2722 6.71311 27.2722 6.15088C27.2722 5.58485 27.3956 5.07961 27.6425 4.63515C27.8933 4.18688 28.2352 3.83359 28.6682 3.57527C29.1013 3.31695 29.5913 3.18779 30.1384 3.18779C30.5486 3.18779 30.9285 3.26187 31.278 3.41002C31.6313 3.55818 31.9352 3.76521 32.1897 4.03113V0.452637H33.3579V9ZM30.3321 8.06549C30.6778 8.06549 30.9893 7.98571 31.2666 7.82616C31.5477 7.66661 31.7719 7.45008 31.939 7.17656C32.1062 6.90305 32.1897 6.59154 32.1897 6.24205V6.04831C32.1897 5.69882 32.1062 5.38731 31.939 5.1138C31.7719 4.84028 31.5477 4.62565 31.2666 4.4699C30.9893 4.31415 30.6778 4.23627 30.3321 4.23627C29.9788 4.23627 29.6616 4.31984 29.3805 4.48699C29.0994 4.65414 28.8772 4.88207 28.7138 5.17078C28.5505 5.45569 28.4688 5.78049 28.4688 6.14518C28.4688 6.50987 28.5505 6.83657 28.7138 7.12528C28.8772 7.41399 29.0994 7.64382 29.3805 7.81477C29.6616 7.98191 29.9788 8.06549 30.3321 8.06549ZM40.3382 9H39.3467L39.3068 8.08258C39.0979 8.41688 38.8244 8.6733 38.4863 8.85185C38.152 9.02659 37.755 9.11396 37.2954 9.11396C36.5508 9.11396 35.962 8.88793 35.5289 8.43587C35.0996 7.98001 34.885 7.35701 34.885 6.56685V3.30176H36.0531V6.3959C36.0531 6.90115 36.1899 7.30382 36.4634 7.60393C36.7369 7.90404 37.1054 8.05409 37.5689 8.05409C38.0475 8.05409 38.4331 7.89454 38.7256 7.57544C39.0219 7.25254 39.1701 6.82897 39.1701 6.30473V3.30176H40.3382V9ZM43.2272 9H41.985V0.224707H43.2272V9ZM49.9512 8.32191C49.2446 8.84995 48.4677 9.11396 47.6206 9.11396C47.0166 9.11396 46.4752 8.98101 45.9966 8.71509C45.5179 8.44917 45.1399 8.08638 44.8626 7.62672C44.5853 7.16707 44.4467 6.64853 44.4467 6.0711C44.4467 5.52027 44.5739 5.02833 44.8284 4.59526C45.083 4.15839 45.4306 3.8146 45.8712 3.56388C46.3119 3.31315 46.8114 3.18779 47.3699 3.18779C47.9473 3.18779 48.4544 3.32455 48.8913 3.59807C49.3319 3.87158 49.6738 4.25336 49.917 4.74341C50.1639 5.22966 50.2874 5.79379 50.2874 6.43579V6.61813H45.7117C45.78 6.91444 45.9092 7.17466 46.0991 7.39879C46.2891 7.61913 46.5246 7.79197 46.8057 7.91733C47.0868 8.0389 47.404 8.09968 47.7573 8.09968C48.3879 8.09968 48.9673 7.89454 49.4953 7.48427L49.9512 8.32191ZM45.6604 5.80898H49.199C49.161 5.48988 49.0622 5.21257 48.9027 4.97704C48.7431 4.73771 48.5361 4.55157 48.2816 4.41861C48.0309 4.28186 47.7478 4.21348 47.4325 4.21348C47.1134 4.21348 46.8266 4.28186 46.5721 4.41861C46.3176 4.55157 46.1105 4.73771 45.951 4.97704C45.7952 5.21637 45.6984 5.49368 45.6604 5.80898Z" fill="#848CA8"/>
</svg>
