<svg width="24" height="22" viewBox="0 0 24 22" fill="none" xmlns="http://www.w3.org/2000/svg">
<path d="M13.0679 9.9H17.5422C17.8388 9.9 18.1234 10.0159 18.3331 10.2222C18.5429 10.4285 18.6607 10.7083 18.6607 11C18.6607 11.2917 18.5429 11.5715 18.3331 11.7778C18.1234 11.9841 17.8388 12.1 17.5422 12.1H11.9493C11.6527 12.1 11.3682 11.9841 11.1584 11.7778C10.9486 11.5715 10.8308 11.2917 10.8308 11V4.4C10.8308 4.10826 10.9486 3.82847 11.1584 3.62218C11.3682 3.41589 11.6527 3.3 11.9493 3.3C12.246 3.3 12.5305 3.41589 12.7403 3.62218C12.9501 3.82847 13.0679 4.10826 13.0679 4.4V9.9ZM11.9493 22C5.7715 22 0.763672 17.0753 0.763672 11C0.763672 4.9247 5.7715 0 11.9493 0C18.1272 0 23.135 4.9247 23.135 11C23.135 17.0753 18.1272 22 11.9493 22ZM11.9493 19.8C14.3226 19.8 16.5987 18.8729 18.2769 17.2225C19.9551 15.5722 20.8979 13.3339 20.8979 11C20.8979 8.66609 19.9551 6.42778 18.2769 4.77746C16.5987 3.12714 14.3226 2.2 11.9493 2.2C9.57604 2.2 7.29995 3.12714 5.62177 4.77746C3.9436 6.42778 3.00081 8.66609 3.00081 11C3.00081 13.3339 3.9436 15.5722 5.62177 17.2225C7.29995 18.8729 9.57604 19.8 11.9493 19.8Z" fill="#848CA8"/>
</svg>
