<svg width="44" height="50" viewBox="0 0 44 50" fill="none" xmlns="http://www.w3.org/2000/svg">
<path fill-rule="evenodd" clip-rule="evenodd" d="M31.4148 2.26505V0.157349H29.3964V2.26505H14.6033V0.157349H12.5851V2.26505H11.6621C10.7903 2.26503 9.95422 2.61137 9.33778 3.22778C8.72134 3.8442 8.37502 4.68026 8.37502 5.55203V27.1543C8.37502 28.026 8.72134 28.8621 9.33778 29.4785C9.95422 30.095 10.7903 30.4413 11.6621 30.4413H32.3378C33.2095 30.4413 34.0456 30.095 34.662 29.4785C35.2785 28.8621 35.6247 28.026 35.6247 27.1543V5.55203C35.6247 4.68026 35.2785 3.8442 34.662 3.22778C34.0456 2.61137 33.2095 2.26503 32.3378 2.26505H31.4148ZM33.6065 10.4847V27.0918C33.6065 27.4283 33.4728 27.751 33.2349 27.9889C32.997 28.2269 32.6742 28.3605 32.3378 28.3605H11.6621C11.3256 28.3605 11.0029 28.2269 10.7649 27.9889C10.527 27.751 10.3934 27.4283 10.3934 27.0918V10.4847H33.6065ZM11.662 4.2833H12.5851V6.36946H14.6033V4.2833H29.3964V6.36946H31.4148V4.2833H32.3378C32.6742 4.2833 32.997 4.41699 33.2349 4.65488C33.4728 4.89283 33.6065 5.2155 33.6065 5.55198V8.4664H10.3934V5.55203C10.3934 5.2155 10.527 4.89283 10.7649 4.65488C11.0029 4.41699 11.3256 4.2833 11.662 4.2833ZM18.5368 24.6403C17.7585 24.6403 17.0803 24.4332 16.5022 24.019C15.9288 23.6003 15.4827 22.9949 15.1641 22.203C14.85 21.4065 14.693 20.4415 14.693 19.3082C14.693 18.1794 14.85 17.219 15.1641 16.4271C15.4827 15.6351 15.9288 15.032 16.5022 14.6178C17.0803 14.1991 17.7585 13.9897 18.5368 13.9897C19.3197 13.9897 19.9978 14.1991 20.5713 14.6178C21.1494 15.032 21.5954 15.6351 21.9095 16.4271C22.2235 17.219 22.3806 18.1794 22.3806 19.3082C22.3806 20.4415 22.2235 21.4065 21.9095 22.203C21.5954 22.9949 21.1494 23.6003 20.5713 24.019C19.9978 24.4332 19.3197 24.6403 18.5368 24.6403ZM18.5368 22.5443C18.9828 22.5443 19.3242 22.2644 19.5609 21.7046C19.8021 21.1402 19.9227 20.3437 19.9227 19.315C19.9227 18.2864 19.8021 17.4921 19.5609 16.9323C19.3242 16.3679 18.9828 16.0857 18.5368 16.0857C18.0998 16.0857 17.7585 16.3679 17.5127 16.9323C17.2715 17.4921 17.1508 18.2864 17.1508 19.315C17.1508 20.3437 17.2715 21.1402 17.5127 21.7046C17.7585 22.2644 18.0998 22.5443 18.5368 22.5443ZM28.8424 24.4355H26.4392V16.55L24.787 17.1508L24.036 15.2528L26.9376 14.1945H28.8424V24.4355ZM1.3529 47.9227L0.938599 48.5807C1.29604 48.8666 1.6746 49.0811 2.07428 49.2241C2.47397 49.367 2.89477 49.4385 3.3367 49.4385C3.84036 49.4385 4.27904 49.3524 4.65273 49.1802C5.02966 49.008 5.32212 48.7675 5.53008 48.4588C5.73805 48.1469 5.84203 47.7846 5.84203 47.3719C5.84203 47.0502 5.78191 46.7756 5.66168 46.5481C5.54145 46.3207 5.38061 46.1257 5.17914 45.9632C4.98092 45.7975 4.75833 45.6545 4.51138 45.5343C4.26767 45.4108 4.02071 45.2938 3.7705 45.1834C3.50729 45.0664 3.25709 44.9462 3.01988 44.8227C2.78591 44.6959 2.5942 44.5465 2.44472 44.3743C2.2985 44.202 2.22538 43.9892 2.22538 43.7357C2.22538 43.5083 2.2855 43.3101 2.40573 43.1411C2.52921 42.9689 2.69818 42.8356 2.91264 42.7414C3.13036 42.6439 3.38219 42.5952 3.66814 42.5952C3.9086 42.5952 4.15231 42.6309 4.39927 42.7024C4.64948 42.7739 4.88831 42.8763 5.11578 43.0095L5.46672 42.3076C5.17751 42.1549 4.87856 42.0395 4.56987 41.9615C4.26117 41.8803 3.95409 41.8397 3.64865 41.8397C3.19697 41.8397 2.79729 41.9225 2.4496 42.0883C2.10515 42.254 1.83545 42.4847 1.64048 42.7804C1.44551 43.0761 1.34803 43.4173 1.34803 43.804C1.34803 44.1062 1.4049 44.3645 1.51863 44.579C1.63236 44.7934 1.78346 44.977 1.97193 45.1298C2.16364 45.2792 2.37648 45.4108 2.61044 45.5246C2.8444 45.6383 3.07999 45.7455 3.3172 45.8463C3.5999 45.9632 3.86636 46.0867 4.11657 46.2167C4.36678 46.3467 4.56987 46.5043 4.72584 46.6895C4.88506 46.8715 4.96468 47.1022 4.96468 47.3816C4.96468 47.6383 4.89481 47.8658 4.75509 48.064C4.61536 48.259 4.42039 48.4117 4.17018 48.5222C3.92322 48.6327 3.63402 48.6879 3.30258 48.6879C3.07512 48.6879 2.8509 48.6603 2.62994 48.605C2.41223 48.5498 2.19776 48.4653 1.98655 48.3516C1.77533 48.2379 1.56412 48.0949 1.3529 47.9227ZM10.3165 49.1851C10.6415 49.0453 10.9226 48.8471 11.1598 48.5904L10.6772 48.0933C10.5082 48.272 10.3035 48.4117 10.0631 48.5124C9.82261 48.6099 9.56915 48.6587 9.3027 48.6587C8.96151 48.6587 8.65768 48.5823 8.39123 48.4296C8.12802 48.2736 7.92006 48.0591 7.76733 47.7862C7.61786 47.5132 7.54312 47.2013 7.54312 46.8503C7.54312 46.4994 7.61786 46.1891 7.76733 45.9194C7.92006 45.6497 8.12802 45.4384 8.39123 45.2857C8.65768 45.1298 8.96151 45.0518 9.3027 45.0518C9.56915 45.0518 9.82099 45.1005 10.0582 45.198C10.2987 45.2955 10.505 45.4352 10.6772 45.6172L11.1549 45.1151C10.9177 44.8584 10.6366 44.6618 10.3117 44.5254C9.98671 44.3889 9.63902 44.3206 9.26858 44.3206C8.78441 44.3206 8.34898 44.4311 7.9623 44.6521C7.57886 44.873 7.27504 45.1752 7.05083 45.5587C6.82986 45.9389 6.71938 46.371 6.71938 46.8552C6.71938 47.3361 6.82986 47.7683 7.05083 48.1517C7.27504 48.5352 7.57886 48.8374 7.9623 49.0583C8.34898 49.2793 8.78441 49.3898 9.26858 49.3898C9.64227 49.3898 9.99158 49.3215 10.3165 49.1851ZM12.2857 41.981V49.2923H13.0851V46.6944C13.0851 46.181 13.2183 45.7764 13.4847 45.4807C13.7512 45.185 14.1168 45.0371 14.5814 45.0371C15.0429 45.0371 15.4019 45.1834 15.6586 45.4758C15.9186 45.765 16.0486 46.1712 16.0486 46.6944V49.2923H16.8479V46.5091C16.8479 45.8203 16.666 45.2841 16.302 44.9007C15.9413 44.514 15.4377 44.3206 14.791 44.3206C14.0209 44.3206 13.4523 44.5968 13.0851 45.1492V41.981H12.2857ZM20.5377 49.3898C21.2656 49.3898 21.9317 49.1575 22.5361 48.6928L22.1657 48.1079C21.7043 48.4751 21.1941 48.6587 20.6352 48.6587C20.3102 48.6587 20.0162 48.6002 19.753 48.4832C19.4897 48.3662 19.2688 48.2021 19.0901 47.9909C18.9146 47.7797 18.7976 47.5311 18.7391 47.2451H22.8188V47.0892C22.8188 46.5433 22.7148 46.0623 22.5069 45.6464C22.2989 45.2305 22.0081 44.9055 21.6344 44.6716C21.2639 44.4376 20.835 44.3206 20.3476 44.3206C19.8732 44.3206 19.4491 44.4279 19.0754 44.6423C18.7018 44.8568 18.4077 45.1509 18.1932 45.5246C17.9787 45.895 17.8715 46.3174 17.8715 46.7918C17.8715 47.2858 17.9869 47.7293 18.2176 48.1225C18.4515 48.5124 18.77 48.8211 19.1729 49.0486C19.5759 49.2761 20.0308 49.3898 20.5377 49.3898ZM22.0633 46.5628H18.7099C18.7424 46.2606 18.8334 45.9974 18.9828 45.7731C19.1356 45.5457 19.3321 45.3686 19.5726 45.2419C19.8163 45.1151 20.0893 45.0518 20.3915 45.0518C20.6904 45.0518 20.9585 45.1151 21.1957 45.2419C21.4362 45.3686 21.6311 45.5457 21.7806 45.7731C21.9333 45.9974 22.0276 46.2606 22.0633 46.5628ZM27.9903 49.2923H28.702V41.981H27.9026V45.0761C27.6784 44.8389 27.4087 44.6537 27.0935 44.5205C26.7815 44.3872 26.442 44.3206 26.0748 44.3206C25.5938 44.3206 25.1633 44.4311 24.7831 44.6521C24.4029 44.873 24.1023 45.1752 23.8814 45.5587C23.6637 45.9389 23.5548 46.371 23.5548 46.8552C23.5548 47.3361 23.6637 47.7683 23.8814 48.1517C24.1023 48.5352 24.4029 48.8374 24.7831 49.0583C25.1633 49.2793 25.5938 49.3898 26.0748 49.3898C26.455 49.3898 26.8059 49.3183 27.1276 49.1753C27.4493 49.0291 27.7222 48.8309 27.9465 48.5807L27.9903 49.2923ZM27.0301 48.4442C26.7637 48.5937 26.468 48.6684 26.143 48.6684C25.8051 48.6684 25.5029 48.5888 25.2364 48.4296C24.97 48.2704 24.7587 48.0543 24.6028 47.7813C24.45 47.5051 24.3737 47.1948 24.3737 46.8503C24.3737 46.5059 24.45 46.1972 24.6028 45.9242C24.7587 45.6513 24.97 45.4352 25.2364 45.276C25.5029 45.1168 25.8051 45.0371 26.143 45.0371C26.468 45.0371 26.7637 45.1119 27.0301 45.2614C27.2966 45.4108 27.5078 45.6172 27.6638 45.8804C27.823 46.1403 27.9026 46.436 27.9026 46.7675V46.9332C27.9026 47.2646 27.823 47.562 27.6638 47.8252C27.5078 48.0851 27.2966 48.2915 27.0301 48.4442ZM33.9758 49.2923H34.6777V44.4181H33.8783V47.0404C33.8783 47.5214 33.737 47.9113 33.4543 48.2102C33.1748 48.5092 32.8076 48.6587 32.3527 48.6587C31.9173 48.6587 31.568 48.5206 31.3048 48.2444C31.0448 47.9682 30.9148 47.5993 30.9148 47.1379V44.4181H30.1155V47.1964C30.1155 47.8755 30.3023 48.4117 30.676 48.8049C31.0529 49.1948 31.5647 49.3898 32.2114 49.3898C32.6078 49.3898 32.9506 49.3134 33.2398 49.1607C33.5323 49.008 33.7679 48.7886 33.9466 48.5027L33.9758 49.2923ZM36.1887 49.2923H37.0368V41.7861H36.1887V49.2923ZM40.8241 49.3898C41.5519 49.3898 42.2181 49.1575 42.8225 48.6928L42.452 48.1079C41.9906 48.4751 41.4804 48.6587 40.9215 48.6587C40.5966 48.6587 40.3025 48.6002 40.0393 48.4832C39.7761 48.3662 39.5551 48.2021 39.3764 47.9909C39.201 47.7797 39.084 47.5311 39.0255 47.2451H43.1052V47.0892C43.1052 46.5433 43.0012 46.0623 42.7932 45.6464C42.5853 45.2305 42.2944 44.9055 41.9207 44.6716C41.5503 44.4376 41.1214 44.3206 40.634 44.3206C40.1595 44.3206 39.7355 44.4279 39.3618 44.6423C38.9881 44.8568 38.694 45.1509 38.4796 45.5246C38.2651 45.895 38.1579 46.3174 38.1579 46.7918C38.1579 47.2858 38.2732 47.7293 38.5039 48.1225C38.7379 48.5124 39.0563 48.8211 39.4593 49.0486C39.8622 49.2761 40.3171 49.3898 40.8241 49.3898ZM42.3497 46.5628H38.9962C39.0287 46.2606 39.1197 45.9974 39.2692 45.7731C39.4219 45.5457 39.6185 45.3686 39.859 45.2419C40.1027 45.1151 40.3756 45.0518 40.6778 45.0518C40.9768 45.0518 41.2449 45.1151 41.4821 45.2419C41.7225 45.3686 41.9175 45.5457 42.067 45.7731C42.2197 45.9974 42.3139 46.2606 42.3497 46.5628Z" fill="white"/>
</svg>
