<svg width="88" height="69" viewBox="0 0 88 69" xmlns="http://www.w3.org/2000/svg">
<path d="M44.0679 18.9H48.5422C48.8388 18.9 49.1234 19.0159 49.3331 19.2222C49.5429 19.4285 49.6607 19.7083 49.6607 20C49.6607 20.2917 49.5429 20.5715 49.3331 20.7778C49.1234 20.9841 48.8388 21.1 48.5422 21.1H42.9493C42.6527 21.1 42.3682 20.9841 42.1584 20.7778C41.9486 20.5715 41.8308 20.2917 41.8308 20V13.4C41.8308 13.1083 41.9486 12.8285 42.1584 12.6222C42.3682 12.4159 42.6527 12.3 42.9493 12.3C43.246 12.3 43.5305 12.4159 43.7403 12.6222C43.9501 12.8285 44.0679 13.1083 44.0679 13.4V18.9ZM42.9493 31C36.7715 31 31.7637 26.0753 31.7637 20C31.7637 13.9247 36.7715 9 42.9493 9C49.1272 9 54.135 13.9247 54.135 20C54.135 26.0753 49.1272 31 42.9493 31ZM42.9493 28.8C45.3226 28.8 47.5987 27.8729 49.2769 26.2225C50.9551 24.5722 51.8979 22.3339 51.8979 20C51.8979 17.6661 50.9551 15.4278 49.2769 13.7775C47.5987 12.1271 45.3226 11.2 42.9493 11.2C40.576 11.2 38.2999 12.1271 36.6218 13.7775C34.9436 15.4278 34.0008 17.6661 34.0008 20C34.0008 22.3339 34.9436 24.5722 36.6218 26.2225C38.2999 27.8729 40.576 28.8 42.9493 28.8Z"/>
<path d="M18.7297 53.1396L19.3281 52.1766C19.5826 52.3817 19.8314 52.5526 20.0745 52.6894C20.3215 52.8224 20.5703 52.9211 20.821 52.9857C21.0717 53.0465 21.3281 53.0769 21.5903 53.0769C21.9473 53.0769 22.2589 53.0199 22.5248 52.9059C22.7907 52.792 22.9977 52.6324 23.1459 52.4273C23.294 52.2221 23.3681 51.9866 23.3681 51.7207C23.3681 51.4206 23.2807 51.1718 23.106 50.9742C22.935 50.7767 22.7109 50.6076 22.4336 50.4671C22.1563 50.3227 21.86 50.186 21.5447 50.0568C21.2674 49.9429 20.99 49.8194 20.7127 49.6864C20.4392 49.5497 20.1885 49.392 19.9606 49.2135C19.7364 49.0349 19.556 48.8184 19.4192 48.5639C19.2863 48.3056 19.2198 47.9941 19.2198 47.6294C19.2198 47.1621 19.3376 46.7518 19.5731 46.3985C19.8086 46.0453 20.1334 45.7717 20.5475 45.578C20.9654 45.3843 21.4459 45.2874 21.9891 45.2874C22.3576 45.2874 22.7337 45.3368 23.1174 45.4355C23.5049 45.5305 23.8829 45.673 24.2513 45.8629L23.7442 46.8829C23.4783 46.7271 23.1953 46.6056 22.8952 46.5182C22.5988 46.4308 22.312 46.3871 22.0347 46.3871C21.7308 46.3871 21.463 46.4365 21.2313 46.5353C21.0033 46.6341 20.8248 46.7727 20.6956 46.9513C20.5665 47.1298 20.5019 47.3388 20.5019 47.5781C20.5019 47.8478 20.5836 48.0757 20.7469 48.2619C20.9103 48.448 21.123 48.6114 21.3851 48.7519C21.651 48.8887 21.9322 49.0216 22.2285 49.1508C22.5172 49.28 22.804 49.4167 23.0889 49.5611C23.3776 49.7016 23.6378 49.8688 23.8696 50.0625C24.1051 50.2563 24.2931 50.488 24.4337 50.7577C24.578 51.0236 24.6502 51.3446 24.6502 51.7207C24.6502 52.2108 24.5249 52.64 24.2741 53.0085C24.0234 53.3732 23.672 53.6581 23.22 53.8632C22.7717 54.0684 22.2456 54.1709 21.6415 54.1709C21.1059 54.1709 20.5931 54.0855 20.103 53.9145C19.6168 53.7398 19.159 53.4815 18.7297 53.1396ZM30.8499 53.151C30.5726 53.4587 30.2402 53.6961 29.8527 53.8632C29.4652 54.0304 29.0455 54.114 28.5934 54.114C28.0236 54.114 27.5107 53.9848 27.0549 53.7265C26.6028 53.4682 26.2457 53.1149 25.9836 52.6666C25.7215 52.2183 25.5904 51.7131 25.5904 51.1509C25.5904 50.5849 25.7215 50.0796 25.9836 49.6351C26.2457 49.1869 26.6028 48.8336 27.0549 48.5753C27.5107 48.317 28.0236 48.1878 28.5934 48.1878C29.0417 48.1878 29.4595 48.2714 29.847 48.4385C30.2345 48.6019 30.5669 48.8374 30.8442 49.1451L30.1547 49.8688C29.9686 49.6712 29.7444 49.5193 29.4823 49.4129C29.224 49.3027 28.9486 49.2477 28.6561 49.2477C28.2952 49.2477 27.9742 49.3293 27.6931 49.4927C27.412 49.656 27.1916 49.8802 27.0321 50.1651C26.8725 50.4462 26.7928 50.7729 26.7928 51.1452C26.7928 51.5137 26.8725 51.8423 27.0321 52.131C27.1916 52.4197 27.412 52.6457 27.6931 52.8091C27.9742 52.9724 28.2952 53.0541 28.6561 53.0541C28.9486 53.0541 29.2259 52.999 29.488 52.8888C29.7501 52.7787 29.9724 52.6267 30.1547 52.433L30.8499 53.151ZM32.0636 54V45.4526H33.2318V49.0938C33.6534 48.4898 34.2935 48.1878 35.1521 48.1878C35.8928 48.1878 36.4722 48.4119 36.89 48.8602C37.3079 49.3084 37.5168 49.9334 37.5168 50.7349V54H36.3487V51.0198C36.3487 50.4538 36.2119 50.015 35.9384 49.7035C35.6687 49.392 35.2907 49.2363 34.8045 49.2363C34.3144 49.2363 33.9289 49.3958 33.6477 49.7149C33.3704 50.0302 33.2318 50.4652 33.2318 51.0198V54H32.0636ZM44.1325 53.3219C43.4259 53.8499 42.6491 54.114 41.8019 54.114C41.1979 54.114 40.6566 53.981 40.1779 53.7151C39.6993 53.4492 39.3213 53.0864 39.044 52.6267C38.7667 52.1671 38.628 51.6485 38.628 51.0711C38.628 50.5203 38.7553 50.0283 39.0098 49.5953C39.2643 49.1584 39.6119 48.8146 40.0526 48.5639C40.4932 48.3132 40.9928 48.1878 41.5512 48.1878C42.1286 48.1878 42.6358 48.3246 43.0726 48.5981C43.5133 48.8716 43.8552 49.2534 44.0983 49.7434C44.3452 50.2297 44.4687 50.7938 44.4687 51.4358V51.6181H39.893C39.9614 51.9144 40.0906 52.1747 40.2805 52.3988C40.4704 52.6191 40.706 52.792 40.9871 52.9173C41.2682 53.0389 41.5854 53.0997 41.9387 53.0997C42.5693 53.0997 43.1486 52.8945 43.6766 52.4843L44.1325 53.3219ZM39.8417 50.809H43.3803C43.3423 50.4899 43.2436 50.2126 43.084 49.977C42.9245 49.7377 42.7174 49.5516 42.4629 49.4186C42.2122 49.2819 41.9292 49.2135 41.6139 49.2135C41.2948 49.2135 41.008 49.2819 40.7534 49.4186C40.4989 49.5516 40.2919 49.7377 40.1323 49.977C39.9766 50.2164 39.8797 50.4937 39.8417 50.809ZM51.3579 54H50.3265L50.2638 53.1852C50.0055 53.4739 49.694 53.7018 49.3293 53.8689C48.9684 54.0323 48.5714 54.114 48.1384 54.114C47.5913 54.114 47.1013 53.9848 46.6682 53.7265C46.2352 53.4682 45.8933 53.1149 45.6425 52.6666C45.3956 52.2183 45.2722 51.7131 45.2722 51.1509C45.2722 50.5849 45.3956 50.0796 45.6425 49.6351C45.8933 49.1869 46.2352 48.8336 46.6682 48.5753C47.1013 48.317 47.5913 48.1878 48.1384 48.1878C48.5486 48.1878 48.9285 48.2619 49.278 48.41C49.6313 48.5582 49.9352 48.7652 50.1897 49.0311V45.4526H51.3579V54ZM48.3321 53.0655C48.6778 53.0655 48.9893 52.9857 49.2666 52.8262C49.5477 52.6666 49.7719 52.4501 49.939 52.1766C50.1062 51.903 50.1897 51.5915 50.1897 51.2421V51.0483C50.1897 50.6988 50.1062 50.3873 49.939 50.1138C49.7719 49.8403 49.5477 49.6256 49.2666 49.4699C48.9893 49.3141 48.6778 49.2363 48.3321 49.2363C47.9788 49.2363 47.6616 49.3198 47.3805 49.487C47.0994 49.6541 46.8772 49.8821 46.7138 50.1708C46.5505 50.4557 46.4688 50.7805 46.4688 51.1452C46.4688 51.5099 46.5505 51.8366 46.7138 52.1253C46.8772 52.414 47.0994 52.6438 47.3805 52.8148C47.6616 52.9819 47.9788 53.0655 48.3321 53.0655ZM58.3382 54H57.3467L57.3068 53.0826C57.0979 53.4169 56.8244 53.6733 56.4863 53.8518C56.152 54.0266 55.755 54.114 55.2954 54.114C54.5508 54.114 53.962 53.8879 53.5289 53.4359C53.0996 52.98 52.885 52.357 52.885 51.5669V48.3018H54.0531V51.3959C54.0531 51.9011 54.1899 52.3038 54.4634 52.6039C54.7369 52.904 55.1054 53.0541 55.5689 53.0541C56.0475 53.0541 56.4331 52.8945 56.7256 52.5754C57.0219 52.2525 57.1701 51.829 57.1701 51.3047V48.3018H58.3382V54ZM61.2272 54H59.985V45.2247H61.2272V54ZM67.9512 53.3219C67.2446 53.8499 66.4677 54.114 65.6206 54.114C65.0166 54.114 64.4752 53.981 63.9966 53.7151C63.5179 53.4492 63.1399 53.0864 62.8626 52.6267C62.5853 52.1671 62.4467 51.6485 62.4467 51.0711C62.4467 50.5203 62.5739 50.0283 62.8284 49.5953C63.083 49.1584 63.4306 48.8146 63.8712 48.5639C64.3119 48.3132 64.8114 48.1878 65.3699 48.1878C65.9473 48.1878 66.4544 48.3246 66.8913 48.5981C67.3319 48.8716 67.6738 49.2534 67.917 49.7434C68.1639 50.2297 68.2874 50.7938 68.2874 51.4358V51.6181H63.7117C63.78 51.9144 63.9092 52.1747 64.0991 52.3988C64.2891 52.6191 64.5246 52.792 64.8057 52.9173C65.0868 53.0389 65.404 53.0997 65.7573 53.0997C66.3879 53.0997 66.9673 52.8945 67.4953 52.4843L67.9512 53.3219ZM63.6604 50.809H67.199C67.161 50.4899 67.0622 50.2126 66.9027 49.977C66.7431 49.7377 66.5361 49.5516 66.2816 49.4186C66.0309 49.2819 65.7478 49.2135 65.4325 49.2135C65.1134 49.2135 64.8266 49.2819 64.5721 49.4186C64.3176 49.5516 64.1105 49.7377 63.951 49.977C63.7952 50.2164 63.6984 50.4937 63.6604 50.809Z" />
</svg>
