<svg width="56" height="70" viewBox="0 0 56 70" fill="none" xmlns="http://www.w3.org/2000/svg">
<path d="M22.5002 8.24984C22.5002 7.23732 21.6794 6.4165 20.6668 6.4165C19.6543 6.4165 18.8335 7.23732 18.8335 8.24984V9.20807L15.1877 9.16662C14.1752 9.15511 13.3451 9.96654 13.3336 10.979C13.3221 11.9915 14.1335 12.8215 15.146 12.8331L18.8125 12.8747L18.8335 12.8749V13.7498C18.8335 14.7624 19.6543 15.5832 20.6668 15.5832C21.6794 15.5832 22.5002 14.7624 22.5002 13.7498V8.24984Z" fill="#47537D"/>
<path d="M26.1668 10.9939C26.1701 9.98137 26.9936 9.16323 28.0061 9.16651L40.8393 9.20819C41.8519 9.21148 42.67 10.035 42.6667 11.0475C42.6634 12.06 41.84 12.8781 40.8274 12.8748L27.9942 12.8332C26.9817 12.8299 26.1636 12.0064 26.1668 10.9939Z" fill="#47537D"/>
<path d="M15.1877 31.1666C14.1752 31.1551 13.3451 31.9665 13.3336 32.979C13.3221 33.9915 14.1335 34.8215 15.146 34.833L18.8125 34.8747C18.8195 34.8748 18.8265 34.8748 18.8335 34.8748V35.7498C18.8335 36.7624 19.6543 37.5832 20.6668 37.5832C21.6794 37.5832 22.5002 36.7624 22.5002 35.7498V30.2498C22.5002 29.2373 21.6794 28.4165 20.6668 28.4165C19.6543 28.4165 18.8335 29.2373 18.8335 30.2498V31.2081L15.1877 31.1666Z" fill="#47537D"/>
<path d="M37.1668 24.7498V23.8333L40.8125 23.8747C41.825 23.8862 42.6551 23.0748 42.6666 22.0624C42.6781 21.0499 41.8667 20.2198 40.8542 20.2083L37.1877 20.1666L37.1668 20.1665V19.2498C37.1668 18.2373 36.346 17.4165 35.3335 17.4165C34.321 17.4165 33.5002 18.2373 33.5002 19.2498V24.7498C33.5002 25.7624 34.321 26.5832 35.3335 26.5832C36.346 26.5832 37.1668 25.7624 37.1668 24.7498Z" fill="#47537D"/>
<path d="M28.0002 31.1665C26.9876 31.1665 26.1668 31.9873 26.1668 32.9998C26.1668 34.0124 26.9876 34.8332 28.0002 34.8332H40.8335C41.846 34.8332 42.6668 34.0124 42.6668 32.9998C42.6668 31.9873 41.846 31.1665 40.8335 31.1665H28.0002Z" fill="#47537D"/>
<path d="M13.3335 21.9998C13.3335 20.9873 14.1543 20.1665 15.1668 20.1665H28.0002C29.0127 20.1665 29.8335 20.9873 29.8335 21.9998C29.8335 23.0124 29.0127 23.8332 28.0002 23.8332H15.1668C14.1543 23.8332 13.3335 23.0124 13.3335 21.9998Z" fill="#47537D"/>
<path d="M6.67188 58.4929C6.61884 58.0223 6.40009 57.6577 6.01562 57.3991C5.63116 57.1373 5.14725 57.0064 4.56392 57.0064C4.14631 57.0064 3.78504 57.0727 3.48011 57.2053C3.17519 57.3345 2.93821 57.5135 2.76918 57.7422C2.60346 57.9676 2.5206 58.2244 2.5206 58.5128C2.5206 58.7547 2.57694 58.9635 2.68963 59.1392C2.80563 59.3149 2.95644 59.4624 3.14205 59.5817C3.33097 59.6977 3.53314 59.7955 3.74858 59.875C3.96402 59.9512 4.17116 60.0142 4.37003 60.0639L5.36435 60.3224C5.68916 60.402 6.02225 60.5097 6.36364 60.6456C6.70502 60.7815 7.02154 60.9605 7.31321 61.1825C7.60488 61.4046 7.8402 61.6797 8.01918 62.0078C8.20147 62.3359 8.29261 62.7287 8.29261 63.1861C8.29261 63.7628 8.14347 64.2749 7.84517 64.7223C7.55019 65.1697 7.12098 65.5227 6.55753 65.7812C5.9974 66.0398 5.3196 66.169 4.52415 66.169C3.76184 66.169 3.10227 66.0481 2.54545 65.8061C1.98864 65.5642 1.55279 65.2211 1.23793 64.777C0.923059 64.3295 0.749053 63.7992 0.715909 63.1861H2.2571C2.28693 63.554 2.40625 63.8606 2.61506 64.1058C2.82718 64.3478 3.0973 64.5284 3.42543 64.6477C3.75687 64.7637 4.11979 64.8217 4.5142 64.8217C4.94839 64.8217 5.33452 64.7538 5.67259 64.6179C6.01397 64.4787 6.28243 64.2865 6.47798 64.0412C6.67353 63.7926 6.77131 63.5026 6.77131 63.1712C6.77131 62.8696 6.68513 62.6226 6.51278 62.4304C6.34375 62.2382 6.1134 62.0791 5.82173 61.9531C5.53338 61.8272 5.20691 61.7161 4.84233 61.62L3.6392 61.2919C2.82386 61.0698 2.17756 60.7434 1.70028 60.3125C1.22633 59.8816 0.989347 59.3116 0.989347 58.6023C0.989347 58.0156 1.14844 57.5036 1.46662 57.0661C1.7848 56.6286 2.21567 56.2888 2.75923 56.0469C3.30279 55.8016 3.91596 55.679 4.59872 55.679C5.28812 55.679 5.89631 55.8 6.4233 56.0419C6.9536 56.2839 7.37121 56.617 7.67614 57.0412C7.98106 57.4621 8.14015 57.946 8.15341 58.4929H6.67188ZM13.3002 66.1541C12.5479 66.1541 11.8999 65.9934 11.3564 65.6719C10.8161 65.3471 10.3985 64.8913 10.1035 64.3047C9.81185 63.7147 9.66602 63.0237 9.66602 62.2315C9.66602 61.4493 9.81185 60.7599 10.1035 60.1634C10.3985 59.5668 10.8095 59.1011 11.3365 58.7663C11.8668 58.4316 12.4866 58.2642 13.1958 58.2642C13.6267 58.2642 14.0443 58.3355 14.4487 58.478C14.853 58.6205 15.216 58.8442 15.5375 59.1491C15.859 59.4541 16.1125 59.8501 16.2981 60.3374C16.4837 60.8213 16.5765 61.4096 16.5765 62.1023V62.6293H10.5062V61.5156H15.1199C15.1199 61.1245 15.0403 60.7782 14.8812 60.4766C14.7221 60.1716 14.4984 59.9313 14.21 59.7557C13.925 59.58 13.5903 59.4922 13.2058 59.4922C12.7882 59.4922 12.4236 59.5949 12.112 59.8004C11.8038 60.0026 11.5652 60.2678 11.3961 60.5959C11.2304 60.9207 11.1475 61.2737 11.1475 61.6548V62.5249C11.1475 63.0353 11.237 63.4695 11.416 63.8274C11.5983 64.1854 11.8519 64.4588 12.1767 64.6477C12.5015 64.8333 12.881 64.9261 13.3152 64.9261C13.5969 64.9261 13.8538 64.8864 14.0858 64.8068C14.3178 64.724 14.5183 64.6013 14.6873 64.4389C14.8564 64.2765 14.9856 64.076 15.0751 63.8374L16.4821 64.0909C16.3694 64.5052 16.1672 64.8681 15.8755 65.1797C15.5872 65.4879 15.2243 65.7282 14.7868 65.9006C14.3526 66.0696 13.8571 66.1541 13.3002 66.1541ZM21.7905 58.3636V59.5568H17.6193V58.3636H21.7905ZM18.7379 56.5341H20.2244V63.7578C20.2244 64.0462 20.2675 64.2633 20.3537 64.4091C20.4399 64.5516 20.5509 64.6494 20.6868 64.7024C20.826 64.7521 20.9768 64.777 21.1392 64.777C21.2585 64.777 21.3629 64.7687 21.4524 64.7521C21.5419 64.7356 21.6115 64.7223 21.6612 64.7124L21.9297 65.9403C21.8435 65.9735 21.7209 66.0066 21.5618 66.0398C21.4027 66.0762 21.2038 66.0961 20.9652 66.0994C20.5741 66.1061 20.2095 66.0365 19.8714 65.8906C19.5334 65.7448 19.2599 65.5194 19.0511 65.2145C18.8423 64.9096 18.7379 64.5268 18.7379 64.0661V56.5341ZM26.9995 58.3636V59.5568H22.8283V58.3636H26.9995ZM23.9469 56.5341H25.4334V63.7578C25.4334 64.0462 25.4765 64.2633 25.5627 64.4091C25.6489 64.5516 25.7599 64.6494 25.8958 64.7024C26.035 64.7521 26.1858 64.777 26.3482 64.777C26.4675 64.777 26.5719 64.7687 26.6614 64.7521C26.7509 64.7356 26.8205 64.7223 26.8702 64.7124L27.1387 65.9403C27.0525 65.9735 26.9299 66.0066 26.7708 66.0398C26.6117 66.0762 26.4128 66.0961 26.1742 66.0994C25.7831 66.1061 25.4185 66.0365 25.0804 65.8906C24.7424 65.7448 24.4689 65.5194 24.2601 65.2145C24.0513 64.9096 23.9469 64.5268 23.9469 64.0661V56.5341ZM28.6438 66V58.3636H30.1303V66H28.6438ZM29.3945 57.1854C29.136 57.1854 28.9139 57.0992 28.7283 56.9268C28.546 56.7512 28.4549 56.5424 28.4549 56.3004C28.4549 56.0552 28.546 55.8464 28.7283 55.674C28.9139 55.4983 29.136 55.4105 29.3945 55.4105C29.6531 55.4105 29.8735 55.4983 30.0558 55.674C30.2414 55.8464 30.3342 56.0552 30.3342 56.3004C30.3342 56.5424 30.2414 56.7512 30.0558 56.9268C29.8735 57.0992 29.6531 57.1854 29.3945 57.1854ZM33.6167 61.4659V66H32.1301V58.3636H33.557V59.6065H33.6515C33.8271 59.2022 34.1022 58.8774 34.4767 58.6321C34.8546 58.3868 35.3302 58.2642 35.9036 58.2642C36.4239 58.2642 36.8797 58.3736 37.2708 58.5923C37.6619 58.8078 37.9651 59.1293 38.1806 59.5568C38.396 59.9844 38.5037 60.513 38.5037 61.1428V66H37.0172V61.3217C37.0172 60.7682 36.873 60.3357 36.5847 60.0241C36.2963 59.7093 35.9003 59.5518 35.3965 59.5518C35.0518 59.5518 34.7452 59.6264 34.4767 59.7756C34.2116 59.9247 34.0011 60.1435 33.8453 60.4318C33.6929 60.7169 33.6167 61.0616 33.6167 61.4659ZM43.699 69.0227C43.0925 69.0227 42.5705 68.9432 42.133 68.7841C41.6988 68.625 41.3442 68.4145 41.0691 68.1527C40.794 67.8909 40.5885 67.6042 40.4526 67.2926L41.7303 66.7656C41.8198 66.9115 41.9391 67.0656 42.0882 67.228C42.2407 67.3937 42.4462 67.5346 42.7047 67.6506C42.9666 67.7666 43.303 67.8246 43.714 67.8246C44.2774 67.8246 44.7431 67.687 45.111 67.4119C45.4789 67.1402 45.6628 66.706 45.6628 66.1094V64.608H45.5684C45.4789 64.7704 45.3496 64.951 45.1806 65.1499C45.0149 65.3487 44.7862 65.5211 44.4945 65.6669C44.2028 65.8127 43.8233 65.8857 43.356 65.8857C42.7528 65.8857 42.2092 65.7448 41.7253 65.4631C41.2447 65.178 40.8636 64.7588 40.5819 64.2053C40.3034 63.6484 40.1642 62.964 40.1642 62.152C40.1642 61.34 40.3018 60.6439 40.5769 60.0639C40.8553 59.4839 41.2364 59.0398 41.7203 58.7315C42.2042 58.42 42.7528 58.2642 43.3659 58.2642C43.8399 58.2642 44.2227 58.3438 44.5144 58.5028C44.806 58.6586 45.0331 58.8409 45.1955 59.0497C45.3612 59.2585 45.4888 59.4425 45.5783 59.6016H45.6877V58.3636H47.1444V66.169C47.1444 66.8253 46.9919 67.3639 46.687 67.7848C46.382 68.2057 45.9694 68.5173 45.449 68.7195C44.932 68.9216 44.3487 69.0227 43.699 69.0227ZM43.6841 64.6527C44.1117 64.6527 44.473 64.5533 44.7679 64.3544C45.0662 64.1522 45.2916 63.8639 45.4441 63.4893C45.5998 63.1115 45.6777 62.6591 45.6777 62.1321C45.6777 61.6184 45.6015 61.166 45.449 60.7749C45.2966 60.3838 45.0729 60.0788 44.7779 59.8601C44.4829 59.638 44.1183 59.527 43.6841 59.527C43.2367 59.527 42.8638 59.643 42.5655 59.875C42.2672 60.1037 42.0418 60.4152 41.8894 60.8097C41.7402 61.2041 41.6657 61.6449 41.6657 62.1321C41.6657 62.6326 41.7419 63.0717 41.8944 63.4496C42.0468 63.8274 42.2722 64.1224 42.5705 64.3345C42.8721 64.5466 43.2433 64.6527 43.6841 64.6527ZM54.8603 60.228L53.513 60.4666C53.4566 60.2943 53.3671 60.1302 53.2445 59.9744C53.1252 59.8187 52.9628 59.6911 52.7573 59.5916C52.5518 59.4922 52.2949 59.4425 51.9867 59.4425C51.5658 59.4425 51.2144 59.5369 50.9327 59.7259C50.651 59.9115 50.5101 60.1518 50.5101 60.4467C50.5101 60.7019 50.6046 60.9074 50.7935 61.0632C50.9824 61.219 51.2873 61.3466 51.7083 61.446L52.9213 61.7244C53.624 61.8868 54.1477 62.1371 54.4924 62.4751C54.8371 62.8132 55.0094 63.2524 55.0094 63.7926C55.0094 64.25 54.8768 64.6577 54.6117 65.0156C54.3498 65.3703 53.9836 65.6487 53.513 65.8509C53.0456 66.053 52.5037 66.1541 51.8873 66.1541C51.0321 66.1541 50.3345 65.9718 49.7942 65.6072C49.254 65.2393 48.9225 64.7173 48.7999 64.0412L50.2367 63.8224C50.3262 64.197 50.5101 64.4804 50.7885 64.6726C51.0669 64.8615 51.4299 64.956 51.8773 64.956C52.3645 64.956 52.754 64.8549 53.0456 64.6527C53.3373 64.4472 53.4831 64.197 53.4831 63.902C53.4831 63.6634 53.3936 63.4628 53.2147 63.3004C53.039 63.138 52.7689 63.0154 52.4043 62.9325L51.1117 62.6491C50.3991 62.4867 49.8721 62.2282 49.5307 61.8736C49.1926 61.5189 49.0236 61.0698 49.0236 60.5263C49.0236 60.0755 49.1496 59.6811 49.4015 59.343C49.6533 59.005 50.0014 58.7415 50.4455 58.5526C50.8896 58.3603 51.3984 58.2642 51.9718 58.2642C52.7971 58.2642 53.4467 58.4432 53.9206 58.8011C54.3946 59.1558 54.7078 59.6314 54.8603 60.228Z" fill="#47537D"/>
</svg>
