<svg width="39" height="53" viewBox="0 0 39 53" fill="none" xmlns="http://www.w3.org/2000/svg">
<circle cx="25.4747" cy="4.5601" r="3.28691" stroke="white" stroke-width="2"/>
<circle cx="14.5693" cy="25.1673" r="3.28691" transform="rotate(-180 14.5693 25.1673)" stroke="white" stroke-width="2"/>
<circle cx="20.0219" cy="14.8637" r="3.28691" transform="rotate(-180 20.0219 14.8637)" stroke="white" stroke-width="2"/>
<path fill-rule="evenodd" clip-rule="evenodd" d="M29.5676 5.83869C29.6936 5.43489 29.7615 5.00545 29.7615 4.56015C29.7615 4.16971 29.7093 3.79147 29.6115 3.43201H33.522V5.83869H29.5676ZM21.3816 5.83869H6.52197V3.43201H21.3377C21.2399 3.79147 21.1877 4.16971 21.1877 4.56015C21.1877 5.00545 21.2556 5.43489 21.3816 5.83869Z" fill="white"/>
<path fill-rule="evenodd" clip-rule="evenodd" d="M10.4763 23.8887C10.3503 24.2925 10.2824 24.722 10.2824 25.1673C10.2824 25.5577 10.3346 25.936 10.4324 26.2954L6.52197 26.2954L6.52197 23.8887L10.4763 23.8887ZM18.6623 23.8887L33.522 23.8887L33.522 26.2954L18.7062 26.2954C18.804 25.936 18.8562 25.5577 18.8562 25.1673C18.8562 24.722 18.7883 24.2925 18.6623 23.8887Z" fill="white"/>
<path fill-rule="evenodd" clip-rule="evenodd" d="M15.929 13.5851C15.803 13.9889 15.7351 14.4184 15.7351 14.8637C15.7351 15.2541 15.7873 15.6324 15.8851 15.9918L6.52197 15.9918L6.52197 13.5851L15.929 13.5851ZM24.115 13.5851L33.522 13.5851L33.522 15.9918L24.1589 15.9918C24.2567 15.6324 24.3089 15.2541 24.3089 14.8637C24.3089 14.4184 24.241 13.9889 24.115 13.5851Z" fill="white"/>
<path d="M1.05121 47.8307L1.46552 47.1727C1.67673 47.3449 1.88795 47.4879 2.09916 47.6016C2.31038 47.7154 2.52484 47.7999 2.74255 47.8551C2.96352 47.9103 3.18773 47.938 3.41519 47.938C3.74664 47.938 4.03584 47.8827 4.2828 47.7722C4.533 47.6618 4.72797 47.509 4.8677 47.3141C5.00742 47.1158 5.07729 46.8884 5.07729 46.6317C5.07729 46.3522 4.99768 46.1215 4.83845 45.9395C4.68248 45.7543 4.47939 45.5967 4.22918 45.4667C3.97897 45.3368 3.71252 45.2133 3.42981 45.0963C3.1926 44.9956 2.95702 44.8883 2.72306 44.7746C2.4891 44.6609 2.27626 44.5293 2.08454 44.3798C1.89607 44.2271 1.74497 44.0435 1.63124 43.829C1.51751 43.6146 1.46064 43.3562 1.46064 43.054C1.46064 42.6673 1.55813 42.3261 1.75309 42.0304C1.94806 41.7347 2.21777 41.504 2.56221 41.3383C2.9099 41.1726 3.30958 41.0897 3.76126 41.0897C4.06671 41.0897 4.37378 41.1303 4.68248 41.2116C4.99118 41.2896 5.29013 41.4049 5.57933 41.5577L5.22839 42.2595C5.00093 42.1263 4.76209 42.0239 4.51188 41.9525C4.26492 41.881 4.02121 41.8452 3.78075 41.8452C3.4948 41.8452 3.24297 41.894 3.02526 41.9915C2.81079 42.0857 2.64182 42.2189 2.51834 42.3911C2.39811 42.5601 2.338 42.7583 2.338 42.9858C2.338 43.2392 2.41111 43.4521 2.55733 43.6243C2.70681 43.7965 2.89853 43.946 3.13249 44.0727C3.3697 44.1962 3.61991 44.3164 3.88311 44.4334C4.13332 44.5439 4.38028 44.6609 4.62399 44.7844C4.87095 44.9046 5.09354 45.0476 5.29175 45.2133C5.49322 45.3758 5.65407 45.5707 5.7743 45.7982C5.89453 46.0257 5.95464 46.3002 5.95464 46.6219C5.95464 47.0346 5.85066 47.3969 5.64269 47.7089C5.43473 48.0176 5.14228 48.258 4.76534 48.4303C4.39165 48.6025 3.95298 48.6886 3.44931 48.6886C3.00738 48.6886 2.58658 48.6171 2.1869 48.4741C1.78721 48.3311 1.40865 48.1167 1.05121 47.8307ZM11.4966 47.9428C10.8922 48.4075 10.2261 48.6398 9.49817 48.6398C8.99126 48.6398 8.53633 48.5261 8.1334 48.2986C7.73047 48.0712 7.41202 47.7625 7.17806 47.3726C6.94735 46.9794 6.83199 46.5358 6.83199 46.0419C6.83199 45.5675 6.93923 45.1451 7.15369 44.7746C7.36815 44.4009 7.66223 44.1069 8.03592 43.8924C8.40961 43.6779 8.83366 43.5707 9.30808 43.5707C9.7955 43.5707 10.2244 43.6877 10.5949 43.9216C10.9686 44.1556 11.2594 44.4805 11.4673 44.8965C11.6753 45.3124 11.7793 45.7933 11.7793 46.3392V46.4952H7.6996C7.75809 46.7812 7.87507 47.0297 8.05054 47.241C8.22926 47.4522 8.45022 47.6163 8.71343 47.7332C8.97664 47.8502 9.27071 47.9087 9.59566 47.9087C10.1546 47.9087 10.6647 47.7251 11.1262 47.3579L11.4966 47.9428ZM7.67035 45.8128H11.0238C10.988 45.5106 10.8938 45.2474 10.7411 45.0232C10.5916 44.7957 10.3966 44.6186 10.1562 44.4919C9.91898 44.3652 9.6509 44.3018 9.35195 44.3018C9.04975 44.3018 8.77679 44.3652 8.53308 44.4919C8.29263 44.6186 8.09603 44.7957 7.94331 45.0232C7.79383 45.2474 7.70285 45.5106 7.67035 45.8128ZM15.586 48.4254C15.2643 48.5684 14.9508 48.6398 14.6453 48.6398C14.3529 48.6398 14.0962 48.5765 13.8752 48.4497C13.6542 48.3198 13.482 48.1394 13.3585 47.9087C13.235 47.6748 13.1733 47.4034 13.1733 47.0947V44.3847H12.3203V43.6682H13.2123V42.4496H13.9727V43.6682H15.4301V44.3847H13.9727V46.9485C13.9727 47.241 14.0507 47.4765 14.2066 47.6553C14.3659 47.834 14.5738 47.9233 14.8305 47.9233C15.0385 47.9233 15.2465 47.8616 15.4544 47.7381L15.586 48.4254ZM19.4854 48.4254C19.1637 48.5684 18.8501 48.6398 18.5447 48.6398C18.2522 48.6398 17.9955 48.5765 17.7745 48.4497C17.5536 48.3198 17.3814 48.1394 17.2579 47.9087C17.1344 47.6748 17.0727 47.4034 17.0727 47.0947V44.3847H16.2197V43.6682H17.1117V42.4496H17.872V43.6682H19.3294V44.3847H17.872V46.9485C17.872 47.241 17.95 47.4765 18.106 47.6553C18.2652 47.834 18.4732 47.9233 18.7299 47.9233C18.9378 47.9233 19.1458 47.8616 19.3538 47.7381L19.4854 48.4254ZM20.8307 42.1279C20.6942 42.1279 20.5788 42.0808 20.4846 41.9866C20.3936 41.8891 20.3481 41.7721 20.3481 41.6356C20.3481 41.5024 20.3936 41.3887 20.4846 41.2944C20.5788 41.2002 20.6942 41.1531 20.8307 41.1531C20.9704 41.1531 21.0874 41.2002 21.1816 41.2944C21.2758 41.3887 21.3229 41.5024 21.3229 41.6356C21.3229 41.7721 21.2758 41.8891 21.1816 41.9866C21.0874 42.0808 20.9704 42.1279 20.8307 42.1279ZM21.2303 48.5424H20.431V43.6682H21.2303V48.5424ZM27.3328 48.5424H26.5334V45.8226C26.5334 45.3611 26.4018 44.9923 26.1386 44.7161C25.8754 44.4399 25.5261 44.3018 25.0907 44.3018C24.639 44.3018 24.2718 44.4513 23.9891 44.7502C23.7097 45.0459 23.5699 45.4359 23.5699 45.92V48.5424H22.7706V43.6682H23.4676L23.4968 44.4578C23.6756 44.1718 23.9111 43.9525 24.2036 43.7998C24.496 43.6471 24.8405 43.5707 25.2369 43.5707C25.8836 43.5707 26.3937 43.7657 26.7674 44.1556C27.1443 44.5455 27.3328 45.0801 27.3328 45.7592V48.5424ZM30.8179 48.5424C30.3499 48.5424 29.9291 48.4335 29.5554 48.2158C29.185 47.9981 28.8926 47.7024 28.6781 47.3287C28.4636 46.9517 28.3564 46.5277 28.3564 46.0565C28.3564 45.5821 28.4636 45.158 28.6781 44.7844C28.8926 44.4107 29.185 44.115 29.5554 43.8973C29.9291 43.6795 30.3516 43.5707 30.8227 43.5707C31.1997 43.5707 31.5457 43.6422 31.8609 43.7852C32.1761 43.9249 32.4442 44.1198 32.6652 44.3701L32.7042 43.6682H33.4109V48.4156C33.4109 48.9615 33.3037 49.4327 33.0892 49.8291C32.8748 50.2288 32.5693 50.5359 32.1729 50.7504C31.7764 50.9681 31.3053 51.0769 30.7594 51.0769C29.986 51.0769 29.3134 50.8202 28.7415 50.3068L29.0924 49.6634C29.5376 50.1248 30.0819 50.3556 30.7252 50.3556C31.1119 50.3556 31.445 50.2743 31.7245 50.1118C32.0072 49.9526 32.2249 49.7268 32.3776 49.4343C32.5336 49.1419 32.6116 48.7958 32.6116 48.3961V47.7966C32.3906 48.0273 32.1258 48.2093 31.8171 48.3425C31.5116 48.4757 31.1785 48.5424 30.8179 48.5424ZM30.8861 47.8356C31.2045 47.8356 31.4937 47.7641 31.7537 47.6211C32.0137 47.4749 32.2216 47.2767 32.3776 47.0265C32.5336 46.773 32.6116 46.4871 32.6116 46.1686V45.9444C32.6116 45.6227 32.5336 45.3368 32.3776 45.0866C32.2216 44.8364 32.0137 44.6398 31.7537 44.4968C31.4937 44.3506 31.2045 44.2774 30.8861 44.2774C30.5579 44.2774 30.2638 44.3554 30.0039 44.5114C29.7439 44.6674 29.5376 44.8802 29.3848 45.1499C29.2354 45.4164 29.1606 45.7186 29.1606 46.0565C29.1606 46.3945 29.2354 46.6983 29.3848 46.968C29.5376 47.2377 29.7439 47.4505 30.0039 47.6065C30.2638 47.7592 30.5579 47.8356 30.8861 47.8356ZM34.5369 48.1183L34.7465 47.3677C34.8634 47.4782 34.9967 47.574 35.1461 47.6553C35.2956 47.7365 35.4532 47.7999 35.6189 47.8453C35.7847 47.8876 35.952 47.9087 36.121 47.9087C36.4232 47.9087 36.6669 47.8421 36.8521 47.7089C37.0373 47.5756 37.1299 47.4018 37.1299 47.1873C37.1299 47.0314 37.0812 46.903 36.9837 46.8023C36.8895 46.6983 36.7644 46.6089 36.6084 46.5342C36.4524 46.4595 36.2851 46.388 36.1063 46.3197C35.8886 46.2352 35.6725 46.1394 35.4581 46.0322C35.2436 45.9249 35.0649 45.7836 34.9219 45.6081C34.7822 45.4326 34.7123 45.2019 34.7123 44.916C34.7123 44.643 34.7806 44.4058 34.917 44.2043C35.0535 44.0029 35.2436 43.8469 35.4873 43.7364C35.7343 43.6259 36.017 43.5707 36.3354 43.5707C36.8164 43.5707 37.2892 43.6909 37.7538 43.9314L37.515 44.6528C37.411 44.5845 37.2908 44.5244 37.1543 44.4724C37.0178 44.4172 36.8781 44.3749 36.7351 44.3457C36.5921 44.3164 36.4573 44.3018 36.3306 44.3018C36.0934 44.3018 35.9016 44.3571 35.7554 44.4675C35.6092 44.5748 35.5361 44.7194 35.5361 44.9013C35.5361 45.0053 35.5653 45.1012 35.6238 45.1889C35.6855 45.2734 35.7879 45.3579 35.9309 45.4424C36.0739 45.5269 36.2721 45.6211 36.5255 45.7251C36.7497 45.8161 36.9707 45.92 37.1884 46.037C37.4061 46.1508 37.5865 46.2986 37.7295 46.4806C37.8757 46.6593 37.9488 46.8933 37.9488 47.1825C37.9488 47.4684 37.8724 47.7219 37.7197 47.9428C37.5702 48.1605 37.3606 48.3311 37.0909 48.4546C36.8245 48.5781 36.5158 48.6398 36.1648 48.6398C35.5832 48.6398 35.0405 48.466 34.5369 48.1183Z" fill="white"/>
</svg>
